<svg width="100%" height="100%" viewBox="0 0 116 116" fill="none" xmlns="http://www.w3.org/2000/svg">
<mask id="mask0_1526_131" style="mask-type:luminance" maskUnits="userSpaceOnUse" x="0" y="0" width="117" height="117">
<path d="M113.811 52.8336L63.1584 2.18865C62.4648 1.49478 61.6414 0.94436 60.7351 0.568824C59.8288 0.193289 58.8574 0 57.8763 0C56.8953 0 55.9239 0.193289 55.0176 0.568824C54.1113 0.94436 53.2879 1.49478 52.5943 2.18865L42.0811 12.7019L55.422 26.0429C56.9954 25.5057 58.6882 25.4216 60.307 25.8004C61.9259 26.1791 63.4057 27.0053 64.5775 28.1846C65.7494 29.364 66.566 30.8491 66.9343 32.4704C67.3026 34.0917 67.2077 35.7838 66.6604 37.3537L79.5156 50.2162C81.4175 49.5465 83.4907 49.5445 85.3939 50.2104C87.2971 50.8763 88.9168 52.1705 89.9863 53.8798C91.0558 55.5892 91.5114 57.6118 91.2779 59.6146C91.0445 61.6174 90.1359 63.4809 88.702 64.8985C87.2503 66.3591 85.3366 67.2703 83.2877 67.4766C81.2387 67.6829 79.1818 67.1714 77.4681 66.0295C75.7544 64.8876 74.4903 63.1862 73.8918 61.2158C73.2933 59.2454 73.3974 57.1284 74.1864 55.2263L62.2013 43.2339V74.7954C64.023 75.6972 65.4807 77.1961 66.3313 79.0423C67.1819 80.8885 67.3741 82.9705 66.8758 84.9411C66.3774 86.9118 65.2188 88.6522 63.5928 89.8722C61.9669 91.0922 59.972 91.7181 57.9406 91.6455C55.9091 91.573 53.9639 90.8064 52.4292 89.4735C50.8945 88.1406 49.8629 86.322 49.5064 84.3208C49.15 82.3196 49.4902 80.2566 50.4703 78.4758C51.4504 76.695 53.0113 75.3039 54.8927 74.5344V42.6829C53.8073 42.2381 52.8206 41.5828 51.9895 40.7549C51.1584 39.927 50.4995 38.9427 50.0506 37.8589C49.6017 36.7752 49.3718 35.6132 49.3741 34.4401C49.3763 33.2671 49.6108 32.106 50.0639 31.024L36.9187 17.8715L2.18865 52.6016C1.49478 53.2951 0.94436 54.1185 0.568824 55.0248C0.193289 55.9311 0 56.9026 0 57.8836C0 58.8646 0.193289 59.836 0.568824 60.7423C0.94436 61.6486 1.49478 62.4721 2.18865 63.1656L52.8408 113.818C53.5344 114.512 54.3578 115.062 55.2641 115.438C56.1704 115.813 57.1418 116.006 58.1229 116.006C59.1039 116.006 60.0753 115.813 60.9816 115.438C61.8879 115.062 62.7114 114.512 63.4049 113.818L113.818 63.4049C115.217 62.0033 116.003 60.1036 116.003 58.1229C116.003 56.1422 115.217 54.2424 113.818 52.8408" fill="white"/>
</mask>
<g mask="url(#mask0_1526_131)">
<g filter="url(#filter0_f_1526_131)">
<circle cx="58.002" cy="98.0032" r="68" transform="rotate(180 58.002 98.0032)" fill="url(#paint0_linear_1526_131)"/>
</g>
<g filter="url(#filter1_f_1526_131)">
<circle cx="58.002" cy="18.0032" r="68" transform="rotate(180 58.002 18.0032)" fill="url(#paint1_linear_1526_131)"/>
</g>
</g>
<path d="M113.811 52.8336L63.1584 2.18865C62.4648 1.49478 61.6414 0.94436 60.7351 0.568824C59.8288 0.193289 58.8574 0 57.8763 0C56.8953 0 55.9239 0.193289 55.0176 0.568824C54.1113 0.94436 53.2879 1.49478 52.5943 2.18865L42.0811 12.7019L55.422 26.0429C56.9954 25.5057 58.6882 25.4216 60.307 25.8004C61.9259 26.1791 63.4057 27.0053 64.5775 28.1846C65.7494 29.364 66.566 30.8491 66.9343 32.4704C67.3026 34.0917 67.2077 35.7838 66.6604 37.3537L79.5156 50.2162C81.4175 49.5465 83.4907 49.5445 85.3939 50.2104C87.2971 50.8763 88.9168 52.1705 89.9863 53.8798C91.0558 55.5892 91.5114 57.6118 91.2779 59.6146C91.0445 61.6174 90.1359 63.4809 88.702 64.8985C87.2503 66.3591 85.3366 67.2703 83.2877 67.4766C81.2387 67.6829 79.1818 67.1714 77.4681 66.0295C75.7544 64.8876 74.4903 63.1862 73.8918 61.2158C73.2933 59.2454 73.3974 57.1284 74.1864 55.2263L62.2013 43.2339V74.7954C64.023 75.6972 65.4807 77.1961 66.3313 79.0423C67.1819 80.8885 67.3741 82.9705 66.8758 84.9411C66.3774 86.9118 65.2188 88.6522 63.5928 89.8722C61.9669 91.0922 59.972 91.7181 57.9406 91.6455C55.9091 91.573 53.9639 90.8064 52.4292 89.4735C50.8945 88.1406 49.8629 86.322 49.5064 84.3208C49.15 82.3196 49.4902 80.2566 50.4703 78.4758C51.4504 76.695 53.0113 75.3039 54.8927 74.5344V42.6829C53.8073 42.2381 52.8206 41.5828 51.9895 40.7549C51.1584 39.927 50.4995 38.9427 50.0506 37.8589C49.6017 36.7752 49.3718 35.6132 49.3741 34.4401C49.3763 33.2671 49.6108 32.106 50.0639 31.024L36.9187 17.8715L2.18865 52.6016C1.49478 53.2951 0.94436 54.1185 0.568824 55.0248C0.193289 55.9311 0 56.9026 0 57.8836C0 58.8646 0.193289 59.836 0.568824 60.7423C0.94436 61.6486 1.49478 62.4721 2.18865 63.1656L52.8408 113.818C53.5344 114.512 54.3578 115.062 55.2641 115.438C56.1704 115.813 57.1418 116.006 58.1229 116.006C59.1039 116.006 60.0753 115.813 60.9816 115.438C61.8879 115.062 62.7114 114.512 63.4049 113.818L113.818 63.4049C115.217 62.0033 116.003 60.1036 116.003 58.1229C116.003 56.1422 115.217 54.2424 113.818 52.8408" fill="#FBF3E4" fill-opacity="0.3"/>
<defs>
<filter id="filter0_f_1526_131" x="-37.998" y="2.00323" width="192" height="192" filterUnits="userSpaceOnUse" color-interpolation-filters="sRGB">
<feFlood flood-opacity="0" result="BackgroundImageFix"/>
<feBlend mode="normal" in="SourceGraphic" in2="BackgroundImageFix" result="shape"/>
<feGaussianBlur stdDeviation="14" result="effect1_foregroundBlur_1526_131"/>
</filter>
<filter id="filter1_f_1526_131" x="-37.998" y="-77.9968" width="192" height="192" filterUnits="userSpaceOnUse" color-interpolation-filters="sRGB">
<feFlood flood-opacity="0" result="BackgroundImageFix"/>
<feBlend mode="normal" in="SourceGraphic" in2="BackgroundImageFix" result="shape"/>
<feGaussianBlur stdDeviation="14" result="effect1_foregroundBlur_1526_131"/>
</filter>
<linearGradient id="paint0_linear_1526_131" x1="126.002" y1="98.0032" x2="-9.99805" y2="98.0032" gradientUnits="userSpaceOnUse">
<stop stop-color="#0ACF83"/>
<stop offset="1" stop-color="#1ABCFE"/>
</linearGradient>
<linearGradient id="paint1_linear_1526_131" x1="126.002" y1="18.0032" x2="-9.99805" y2="18.0032" gradientUnits="userSpaceOnUse">
<stop stop-color="#A259FF"/>
<stop offset="1" stop-color="#FF7262"/>
</linearGradient>
</defs>
</svg>
