<svg width="100%" height="100%" viewBox="0 0 23 23" fill="none" xmlns="http://www.w3.org/2000/svg">
<path fill-rule="evenodd" clip-rule="evenodd" d="M11.2075 0C5.01835 0 0 5.14344 0 11.4927C0 16.5711 3.21215 20.8739 7.66512 22.395C8.2255 22.5 8.43063 22.1448 8.43063 21.8396C8.43063 21.5644 8.42063 20.8439 8.41562 19.8833C5.29854 20.5788 4.6381 18.3423 4.6381 18.3423C4.12776 17.0164 3.39227 16.6611 3.39227 16.6611C2.37659 15.9457 3.46732 15.9607 3.46732 15.9607C4.59307 16.0407 5.18346 17.1465 5.18346 17.1465C6.18413 18.9026 7.80522 18.3973 8.44564 18.1021C8.54571 17.3616 8.8359 16.8513 9.15612 16.5661C6.66946 16.2759 4.05271 15.2902 4.05271 10.8873C4.05271 9.63144 4.488 8.60575 5.20348 7.80522C5.0884 7.51502 4.70314 6.34424 5.31355 4.76318C5.31355 4.76318 6.25418 4.45298 8.39561 5.93897C9.29121 5.6838 10.2468 5.55871 11.2025 5.55371C12.1531 5.55871 13.1138 5.6838 14.0094 5.93897C16.1508 4.45298 17.0864 4.76318 17.0864 4.76318C17.6968 6.34424 17.3116 7.51502 17.1965 7.80522C17.912 8.61075 18.3473 9.63644 18.3473 10.8873C18.3473 15.3002 15.7255 16.2709 13.2288 16.5561C13.6291 16.9113 13.9893 17.6118 13.9893 18.6825C13.9893 20.2185 13.9743 21.4593 13.9743 21.8346C13.9743 22.1398 14.1745 22.5 14.7449 22.385C19.2078 20.8689 22.415 16.5661 22.415 11.4927C22.415 5.14344 17.3966 0 11.2075 0Z" fill="white"/>
</svg>
