<svg width="100%" height="100%" viewBox="0 0 23 23" fill="none" xmlns="http://www.w3.org/2000/svg">
<path d="M20.7567 0H1.6557C0.741458 0 0 0.719217 0 1.60562V20.8086C0 21.6946 0.741458 22.4138 1.6557 22.4138H20.7567C21.6723 22.4138 22.4138 21.6941 22.4138 20.8086V1.60562C22.4138 0.718766 21.6719 0 20.7567 0ZM6.79375 18.7632H3.40844V8.64232H6.79375V18.7632ZM5.10132 7.25977H5.07865C3.9431 7.25977 3.20845 6.48242 3.20845 5.51129C3.20845 4.51854 3.96578 3.76282 5.12354 3.76282C6.28176 3.76282 6.99419 4.51854 7.01687 5.51129C7.01687 6.48242 6.2813 7.25977 5.10132 7.25977ZM19.0013 18.7632H15.616V13.3474C15.616 11.9874 15.1262 11.0591 13.9013 11.0591C12.9662 11.0591 12.4093 11.685 12.164 12.2898C12.0747 12.5056 12.0529 12.8076 12.0529 13.1104V18.7627H8.66757C8.66757 18.7627 8.71202 9.59046 8.66757 8.64187H12.0529V10.0744C12.5027 9.38497 13.3072 8.40303 15.1044 8.40303C17.3315 8.40303 19.0017 9.85003 19.0017 12.959L19.0013 18.7632Z" fill="white"/>
</svg>
