<svg width="100%" height="100%" viewBox="0 0 116 116" fill="none" xmlns="http://www.w3.org/2000/svg">
<mask id="mask0_1526_263" style="mask-type:luminance" maskUnits="userSpaceOnUse" x="0" y="7" width="117" height="102">
<path d="M94.7513 40.1407C93.5278 39.7329 92.3043 39.3478 91.0808 38.9852C91.2848 38.1469 91.466 37.3086 91.6473 36.4703C94.4341 22.9668 92.5989 12.1141 86.4135 8.53434C80.4547 5.11314 70.7349 8.67028 60.9018 17.2346C59.9276 18.0729 58.976 18.9565 58.0697 19.8401C57.458 19.2511 56.8236 18.662 56.1892 18.0956C45.8803 8.94216 35.5487 5.09049 29.3634 8.69294C23.4273 12.1368 21.66 22.3551 24.1523 35.1336C24.4015 36.4024 24.6734 37.6485 24.9906 38.9173C23.5405 39.3251 22.1132 39.7782 20.7764 40.254C8.6776 44.4456 0 51.0614 0 57.9038C0 64.9727 9.24403 72.0643 21.8186 76.3692C22.8382 76.709 23.8577 77.0489 24.9 77.3434C24.5601 78.7028 24.2656 80.0396 23.9937 81.4217C21.6147 93.9963 23.4726 103.965 29.4087 107.386C35.5261 110.921 45.8123 107.296 55.8267 98.5276C56.6197 97.8253 57.4126 97.1003 58.2056 96.3299C59.2025 97.3042 60.2448 98.2331 61.287 99.1394C70.9841 107.477 80.568 110.853 86.4815 107.432C92.5989 103.897 94.5927 93.1806 92.0098 80.1302C91.8059 79.1333 91.5793 78.1138 91.3301 77.0715C92.0551 76.8676 92.7575 76.641 93.4598 76.4145C106.533 72.087 116.003 65.086 116.003 57.9038C116.003 51.0387 107.077 44.3776 94.7513 40.1407ZM64.0964 20.905C72.5248 13.5642 80.3868 10.6867 83.9666 12.7485C87.7956 14.9462 89.2683 23.8278 86.8667 35.4961C86.7081 36.2664 86.5495 37.0141 86.3456 37.7618C81.3157 36.6289 76.2179 35.8133 71.0974 35.3601C68.152 31.146 64.9348 27.113 61.4456 23.3293C62.3292 22.491 63.1902 21.698 64.0964 20.905ZM37.8824 69.6627C39.0379 71.6339 40.216 73.605 41.4622 75.5309C37.9277 75.1457 34.4159 74.5793 30.9494 73.8316C31.9463 70.569 33.1924 67.1931 34.6424 63.7493C35.6847 65.7431 36.7495 67.7142 37.8824 69.6627ZM31.0173 42.4064C34.2799 41.6814 37.7464 41.0923 41.3489 40.6392C40.1481 42.5197 38.9699 44.4456 37.8597 46.3941C36.7495 48.3199 35.662 50.291 34.6424 52.2849C33.2151 48.909 32.0142 45.6011 31.0173 42.4064ZM37.2253 58.0171C38.7207 54.8904 40.352 51.8317 42.0739 48.8183C43.7958 45.805 45.6537 42.8822 47.6022 40.0048C51.0007 39.7556 54.4673 39.6196 58.0017 39.6196C61.5362 39.6196 65.0254 39.7556 68.4013 40.0048C70.3271 42.8596 72.1623 45.7823 73.9069 48.773C75.6515 51.7637 77.2828 54.8224 78.8234 57.9264C77.3054 61.0531 75.6741 64.1344 73.9295 67.1705C72.2076 70.1838 70.3724 73.1066 68.4466 76.0067C65.0707 76.2559 61.5589 76.3692 58.0017 76.3692C54.4446 76.3692 51.0007 76.2559 47.6702 76.052C45.699 73.1745 43.8412 70.2291 42.0966 67.2158C40.352 64.2024 38.7433 61.1437 37.2253 58.0171ZM78.1437 69.6174C79.2992 67.6236 80.3868 65.6071 81.4516 63.568C82.9017 66.8533 84.1705 70.1838 85.2807 73.605C81.7688 74.398 78.2117 75.0098 74.6319 75.4176C75.8554 73.5144 77.0109 71.5659 78.1437 69.6174ZM81.4063 52.2849C80.3415 50.291 79.2539 48.2972 78.1211 46.3487C77.0109 44.4229 75.8554 42.5197 74.6546 40.6392C78.3023 41.0923 81.7915 41.7041 85.0541 42.4518C84.0119 45.805 82.7884 49.0676 81.4063 52.2849ZM58.047 26.7958C60.426 29.3787 62.6691 32.0975 64.7535 34.907C60.2674 34.7031 55.7587 34.7031 51.2726 34.907C53.493 31.9843 55.7814 29.2654 58.047 26.7958ZM31.765 12.9071C35.5714 10.6867 44.0224 13.8587 52.9266 21.7433C53.493 22.2418 54.0594 22.7855 54.6485 23.3293C51.1367 27.113 47.8967 31.146 44.9287 35.3601C39.8082 35.8133 34.7331 36.6063 29.7032 37.7165C29.4087 36.561 29.1595 35.3828 28.9102 34.2046C26.7805 23.2387 28.1852 14.9689 31.765 12.9071ZM26.2141 72.6308C25.2625 72.3589 24.3335 72.0644 23.4046 71.7472C18.5787 70.2291 13.0957 67.8275 9.13074 64.6782C6.84239 63.0922 5.30172 60.6453 4.87124 57.9038C4.87124 53.7576 12.0308 48.4558 22.3624 44.8534C23.6538 44.4002 24.9679 43.9924 26.282 43.6073C27.8227 48.5238 29.6806 53.3497 31.833 58.0171C29.6579 62.7524 27.7774 67.6463 26.2141 72.6308ZM52.632 94.8346C48.8936 98.2558 44.5662 100.975 39.8535 102.832C37.3386 104.033 34.4385 104.147 31.8556 103.127C28.2532 101.043 26.7578 93.0447 28.797 82.2826C29.0462 81.0138 29.3181 79.745 29.6353 78.4989C34.7104 79.5864 39.8309 80.3341 45.0193 80.7193C48.01 84.9561 51.2953 89.0117 54.8071 92.8181C54.0821 93.5205 53.3571 94.2002 52.632 94.8346ZM58.183 89.3289C55.872 86.8367 53.561 84.0725 51.3179 81.1045C53.493 81.1951 55.736 81.2404 58.0017 81.2404C60.3354 81.2404 62.6237 81.1951 64.8894 81.0818C62.805 83.9592 60.562 86.7007 58.183 89.3289ZM87.7956 96.126C87.5917 98.8901 86.2323 101.473 84.0572 103.218C80.4547 105.302 72.774 102.583 64.4816 95.469C63.53 94.6533 62.5784 93.7697 61.6042 92.8634C65.0707 89.0344 68.2653 84.9788 71.1654 80.7193C76.3538 80.2888 81.5196 79.4958 86.6174 78.3403C86.844 79.2692 87.0479 80.1982 87.2292 81.1045C88.3394 85.9984 88.5206 91.0962 87.7956 96.126ZM91.9192 71.7698C91.2848 71.9737 90.6504 72.1776 89.9933 72.3589C88.4073 67.4197 86.4588 62.5938 84.2158 57.9038C86.3909 53.2818 88.2261 48.5238 89.7667 43.6526C90.9449 43.9924 92.0778 44.3549 93.1653 44.7174C103.723 48.3426 111.132 53.7349 111.132 57.8585C111.132 62.2992 103.225 68.0314 91.9192 71.7698ZM58.0017 68.3713C63.7339 68.3713 68.3786 63.7266 68.3786 57.9944C68.3786 52.2622 63.7339 47.6175 58.0017 47.6175C52.2695 47.6175 47.6249 52.2622 47.6249 57.9944C47.6249 63.7266 52.2695 68.3713 58.0017 68.3713Z" fill="white"/>
</mask>
<g mask="url(#mask0_1526_263)">
<g filter="url(#filter0_f_1526_263)">
<circle cx="58.002" cy="98" r="68" transform="rotate(180 58.002 98)" fill="url(#paint0_linear_1526_263)"/>
</g>
<g filter="url(#filter1_f_1526_263)">
<circle cx="58.002" cy="18" r="68" transform="rotate(180 58.002 18)" fill="url(#paint1_linear_1526_263)"/>
</g>
</g>
<path d="M94.7513 40.1408C93.5278 39.733 92.3043 39.3478 91.0808 38.9853C91.2848 38.147 91.466 37.3087 91.6473 36.4704C94.4341 22.9669 92.5989 12.1142 86.4135 8.5344C80.4547 5.1132 70.7349 8.67034 60.9018 17.2347C59.9276 18.073 58.976 18.9566 58.0697 19.8402C57.458 19.2511 56.8236 18.662 56.1892 18.0956C45.8803 8.94222 35.5487 5.09055 29.3634 8.693C23.4273 12.1369 21.66 22.3551 24.1523 35.1336C24.4015 36.4024 24.6734 37.6485 24.9906 38.9173C23.5405 39.3252 22.1132 39.7783 20.7764 40.2541C8.6776 44.4456 0 51.0614 0 57.9038C0 64.9728 9.24403 72.0644 21.8186 76.3692C22.8382 76.7091 23.8577 77.0489 24.9 77.3435C24.5601 78.7029 24.2656 80.0396 23.9937 81.4217C21.6147 93.9963 23.4726 103.965 29.4087 107.387C35.5261 110.921 45.8123 107.296 55.8267 98.5277C56.6197 97.8253 57.4126 97.1003 58.2056 96.33C59.2025 97.3042 60.2448 98.2332 61.287 99.1394C70.9841 107.477 80.568 110.853 86.4815 107.432C92.5989 103.897 94.5927 93.1807 92.0098 80.1303C91.8059 79.1334 91.5793 78.1138 91.3301 77.0716C92.0551 76.8677 92.7575 76.6411 93.4598 76.4145C106.533 72.0871 116.003 65.0861 116.003 57.9038C116.003 51.0388 107.077 44.3777 94.7513 40.1408ZM64.0964 20.9051C72.5248 13.5642 80.3868 10.6868 83.9666 12.7486C87.7956 14.9463 89.2683 23.8278 86.8667 35.4961C86.7081 36.2665 86.5495 37.0141 86.3456 37.7618C81.3157 36.629 76.2179 35.8133 71.0974 35.3602C68.152 31.146 64.9348 27.1131 61.4456 23.3294C62.3292 22.4911 63.1902 21.6981 64.0964 20.9051ZM37.8824 69.6628C39.0379 71.6339 40.216 73.6051 41.4622 75.5309C37.9277 75.1458 34.4159 74.5793 30.9494 73.8316C31.9463 70.5691 33.1924 67.1932 34.6424 63.7493C35.6847 65.7431 36.7495 67.7143 37.8824 69.6628ZM31.0173 42.4065C34.2799 41.6815 37.7464 41.0924 41.3489 40.6393C40.1481 42.5198 38.9699 44.4456 37.8597 46.3941C36.7495 48.32 35.662 50.2911 34.6424 52.2849C33.2151 48.909 32.0142 45.6011 31.0173 42.4065ZM37.2253 58.0171C38.7207 54.8905 40.352 51.8318 42.0739 48.8184C43.7958 45.805 45.6537 42.8823 47.6022 40.0049C51.0007 39.7556 54.4673 39.6197 58.0017 39.6197C61.5362 39.6197 65.0254 39.7556 68.4013 40.0049C70.3271 42.8596 72.1623 45.7824 73.9069 48.7731C75.6515 51.7638 77.2828 54.8225 78.8234 57.9265C77.3054 61.0531 75.6741 64.1345 73.9295 67.1705C72.2076 70.1839 70.3724 73.1066 68.4466 76.0067C65.0707 76.2559 61.5589 76.3692 58.0017 76.3692C54.4446 76.3692 51.0007 76.2559 47.6702 76.052C45.699 73.1746 43.8412 70.2292 42.0966 67.2158C40.352 64.2025 38.7433 61.1438 37.2253 58.0171ZM78.1437 69.6175C79.2992 67.6237 80.3868 65.6072 81.4516 63.5681C82.9017 66.8533 84.1705 70.1839 85.2807 73.6051C81.7688 74.3981 78.2117 75.0098 74.6319 75.4176C75.8554 73.5145 77.0109 71.566 78.1437 69.6175ZM81.4063 52.2849C80.3415 50.2911 79.2539 48.2973 78.1211 46.3488C77.0109 44.423 75.8554 42.5198 74.6546 40.6393C78.3023 41.0924 81.7915 41.7041 85.0541 42.4518C84.0119 45.805 82.7884 49.0676 81.4063 52.2849ZM58.047 26.7959C60.426 29.3788 62.6691 32.0976 64.7535 34.9071C60.2674 34.7031 55.7587 34.7031 51.2726 34.9071C53.493 31.9843 55.7814 29.2655 58.047 26.7959ZM31.765 12.9072C35.5714 10.6868 44.0224 13.8588 52.9266 21.7434C53.493 22.2418 54.0594 22.7856 54.6485 23.3294C51.1367 27.1131 47.8967 31.146 44.9287 35.3602C39.8082 35.8133 34.7331 36.6063 29.7032 37.7165C29.4087 36.561 29.1595 35.3829 28.9102 34.2047C26.7805 23.2387 28.1852 14.969 31.765 12.9072ZM26.2141 72.6308C25.2625 72.3589 24.3335 72.0644 23.4046 71.7472C18.5787 70.2292 13.0957 67.8276 9.13074 64.6783C6.84239 63.0923 5.30172 60.6453 4.87124 57.9038C4.87124 53.7576 12.0308 48.4559 22.3624 44.8534C23.6538 44.4003 24.9679 43.9925 26.282 43.6073C27.8227 48.5239 29.6806 53.3498 31.833 58.0171C29.6579 62.7524 27.7774 67.6463 26.2141 72.6308ZM52.632 94.8346C48.8936 98.2558 44.5662 100.975 39.8535 102.833C37.3386 104.033 34.4385 104.147 31.8556 103.127C28.2532 101.043 26.7578 93.0447 28.797 82.2827C29.0462 81.0139 29.3181 79.7451 29.6353 78.499C34.7104 79.5865 39.8309 80.3342 45.0193 80.7194C48.01 84.9562 51.2953 89.0118 54.8071 92.8182C54.0821 93.5205 53.3571 94.2002 52.632 94.8346ZM58.183 89.329C55.872 86.8367 53.561 84.0726 51.3179 81.1045C53.493 81.1952 55.736 81.2405 58.0017 81.2405C60.3354 81.2405 62.6237 81.1952 64.8894 81.0819C62.805 83.9593 60.562 86.7008 58.183 89.329ZM87.7956 96.1261C87.5917 98.8902 86.2323 101.473 84.0572 103.218C80.4547 105.302 72.774 102.583 64.4816 95.469C63.53 94.6534 62.5784 93.7697 61.6042 92.8635C65.0707 89.0344 68.2653 84.9789 71.1654 80.7194C76.3538 80.2889 81.5196 79.4959 86.6174 78.3404C86.844 79.2693 87.0479 80.1982 87.2292 81.1045C88.3394 85.9984 88.5206 91.0962 87.7956 96.1261ZM91.9192 71.7699C91.2848 71.9738 90.6504 72.1777 89.9933 72.359C88.4073 67.4197 86.4588 62.5938 84.2158 57.9038C86.3909 53.2818 88.2261 48.5239 89.7667 43.6526C90.9449 43.9925 92.0778 44.355 93.1653 44.7175C103.723 48.3426 111.132 53.735 111.132 57.8585C111.132 62.2993 103.225 68.0315 91.9192 71.7699ZM58.0017 68.3713C63.7339 68.3713 68.3786 63.7267 68.3786 57.9945C68.3786 52.2623 63.7339 47.6176 58.0017 47.6176C52.2695 47.6176 47.6249 52.2623 47.6249 57.9945C47.6249 63.7267 52.2695 68.3713 58.0017 68.3713Z" fill="#FBF3E4" fill-opacity="0.3"/>
<defs>
<filter id="filter0_f_1526_263" x="-37.998" y="2" width="192" height="192" filterUnits="userSpaceOnUse" color-interpolation-filters="sRGB">
<feFlood flood-opacity="0" result="BackgroundImageFix"/>
<feBlend mode="normal" in="SourceGraphic" in2="BackgroundImageFix" result="shape"/>
<feGaussianBlur stdDeviation="14" result="effect1_foregroundBlur_1526_263"/>
</filter>
<filter id="filter1_f_1526_263" x="-37.998" y="-78" width="192" height="192" filterUnits="userSpaceOnUse" color-interpolation-filters="sRGB">
<feFlood flood-opacity="0" result="BackgroundImageFix"/>
<feBlend mode="normal" in="SourceGraphic" in2="BackgroundImageFix" result="shape"/>
<feGaussianBlur stdDeviation="14" result="effect1_foregroundBlur_1526_263"/>
</filter>
<linearGradient id="paint0_linear_1526_263" x1="126.002" y1="98" x2="-9.99805" y2="98" gradientUnits="userSpaceOnUse">
<stop stop-color="#A259FF"/>
<stop offset="1" stop-color="#FF7262"/>
</linearGradient>
<linearGradient id="paint1_linear_1526_263" x1="126.002" y1="18" x2="-9.99805" y2="18" gradientUnits="userSpaceOnUse">
<stop stop-color="#0ACF83"/>
<stop offset="1" stop-color="#1ABCFE"/>
</linearGradient>
</defs>
</svg>
