<svg width="100%" height="100%" viewBox="0 0 116 116" fill="none" xmlns="http://www.w3.org/2000/svg">
<mask id="mask0_1526_203" style="mask-type:luminance" maskUnits="userSpaceOnUse" x="0" y="14" width="117" height="88">
<path d="M54.7101 80.2758C54.6014 80.4716 54.6557 80.3846 54.7101 80.2758V80.2758ZM99.8668 64.5064C96.2212 64.5053 92.6242 65.3425 89.3539 66.9534C88.2844 64.7965 87.1788 62.9114 86.9975 61.4976C86.78 59.8481 86.5444 58.8693 86.7981 56.9117C87.0519 54.9542 88.1938 52.1809 88.1757 51.9815C88.1576 51.7822 87.9219 50.7852 85.5837 50.7671C83.2455 50.749 81.2335 51.2203 80.9997 51.8365C80.5867 52.9628 80.2655 54.1206 80.039 55.2986C79.6221 57.4193 75.3644 64.9958 72.9537 68.9473C72.1562 67.4066 71.4855 66.0471 71.3405 64.9596C71.123 63.3101 70.8873 62.3313 71.1411 60.3738C71.3949 58.4162 72.5368 55.6429 72.5187 55.4436C72.5005 55.2442 72.2649 54.2473 69.9285 54.2291C67.5921 54.211 65.5783 54.6823 65.3427 55.2986C65.107 55.9148 64.8533 57.3649 64.382 58.7606C63.9107 60.1563 58.2392 72.7718 56.7547 76.0525C55.9934 77.7201 55.3409 79.0614 54.8696 79.9677C54.7971 80.1127 54.7427 80.2033 54.7065 80.2758C54.7609 80.1852 54.7971 80.0946 54.7971 80.1308C54.3984 80.9102 54.1627 81.3453 54.1627 81.3453V81.3634C53.8546 81.9434 53.5102 82.4691 53.3471 82.4691C53.2383 82.4691 53.0027 80.9465 53.4014 78.862C54.2533 74.4756 56.2653 67.6603 56.2472 67.4247C56.2291 67.2978 56.6278 66.1196 54.924 65.4852C53.2746 64.8871 52.6764 65.884 52.5314 65.884C52.3864 65.884 52.2776 66.2465 52.2776 66.2465C52.2776 66.2465 54.1083 58.5612 48.7631 58.5612C45.4279 58.5612 40.7877 62.2226 38.5075 65.5396C37.0756 66.319 33.9761 68.0047 30.7134 69.7992C29.4628 70.4879 28.1758 71.1948 26.9614 71.8655C26.8708 71.7749 26.7983 71.6842 26.7076 71.5936C20.2204 64.6696 8.24295 59.7756 8.75047 50.4771C8.93172 47.0876 10.1099 38.1878 31.7829 27.3849C49.5461 18.5395 63.7476 20.9684 66.1928 26.3699C69.7092 34.0733 58.5999 48.4108 40.1533 50.4771C33.1223 51.2565 29.4265 48.5376 28.5021 47.5226C27.5414 46.4532 27.3964 46.3988 27.0339 46.5982C26.4358 46.9245 26.8164 47.867 27.0339 48.4289C27.5777 49.8608 29.8434 52.3984 33.7024 53.6672C37.0919 54.7729 45.3355 55.3892 55.3028 51.5284C66.5009 47.2145 75.2176 35.1971 72.6619 25.1373C70.059 14.9144 53.1078 11.5611 37.0792 17.2526C27.5287 20.6421 17.2007 25.9711 9.77095 32.9132C0.945518 41.1786 -0.466478 48.3745 0.113546 51.3834C2.17807 62.0595 16.8926 69.0197 22.7816 74.1675C22.4916 74.3306 22.2197 74.4756 21.966 74.6206C19.0133 76.0888 7.79524 81.9615 4.98756 88.1605C1.81555 95.1933 5.51321 100.232 7.94025 100.921C15.515 103.024 23.271 99.2354 27.4381 93.0182C31.6052 86.8011 31.0995 78.6808 29.1782 74.9831C29.1601 74.9287 29.1238 74.8925 29.1057 74.8381C29.867 74.385 30.6464 73.9318 31.4258 73.4787C32.9284 72.5905 34.3966 71.7749 35.6835 71.068C34.9585 73.0255 34.4328 75.3819 34.161 78.7895C33.8347 82.7772 35.4841 87.943 37.623 89.9731C38.5655 90.8613 39.7056 90.8794 40.4125 90.8794C42.9139 90.8794 44.0377 88.8131 45.2865 86.348C46.8272 83.3391 48.1867 79.8408 48.1867 79.8408C48.1867 79.8408 46.4828 89.3025 51.1412 89.3025C52.8432 89.3025 54.547 87.1093 55.3101 85.9855V86.0036C55.3101 86.0036 55.3463 85.9311 55.437 85.7861C55.6182 85.5142 55.7089 85.3511 55.7089 85.3511V85.2967C56.3976 84.1185 57.9021 81.4178 60.166 76.9588C63.1023 71.1948 65.91 63.9989 65.91 63.9989C66.1813 65.5808 66.5567 67.143 67.0338 68.6754C67.5413 70.3973 68.6108 72.2824 69.4627 74.1131C68.7739 75.0556 68.357 75.5994 68.357 75.5994C68.3583 75.6133 68.3648 75.6262 68.3751 75.6356C67.8314 76.3607 67.2151 77.1401 66.5807 77.9014C64.2624 80.6565 61.5055 83.8104 61.1429 84.7167C60.7079 85.7861 60.8167 86.5836 61.6505 87.1999C62.2667 87.6711 63.3543 87.7436 64.4944 87.653C66.5789 87.508 68.047 87.0005 68.754 86.6742C70.0572 86.2069 71.2889 85.5603 72.4135 84.7529C74.6793 83.0853 76.0568 80.6927 75.9299 77.5389C75.8574 75.7988 75.2955 74.0587 74.6068 72.4274C74.8061 72.1374 75.0237 71.8292 75.223 71.5211C78.8101 66.2828 81.5834 60.5333 81.5834 60.5333C81.8547 62.1151 82.2301 63.6773 82.7071 65.2097C83.1422 66.6779 83.9923 68.2911 84.7717 69.868C81.4021 72.605 79.3176 75.777 78.5926 77.8615C77.2513 81.7223 78.3026 83.4623 80.2783 83.8611C81.1665 84.0424 82.4353 83.6255 83.3778 83.2267C84.7776 82.7605 86.0975 82.0819 87.2912 81.2148C89.5569 79.5472 91.7483 77.209 91.6033 74.037C91.5489 72.605 91.1501 71.1731 90.6245 69.7955C93.4702 68.5992 97.1661 67.9467 101.879 68.4905C111.971 69.6686 113.947 75.9764 113.566 78.6046C113.186 81.2329 111.065 82.7011 110.358 83.1361C109.651 83.5711 109.434 83.7342 109.488 84.0605C109.579 84.5318 109.905 84.5136 110.503 84.4049C111.337 84.2599 115.794 82.2661 115.993 77.3902C116.283 71.2275 110.358 64.4484 99.8614 64.5028L99.8668 64.5064ZM22.0747 90.7344C18.7414 94.3777 14.0649 95.7552 12.0548 94.5952C9.89783 93.3409 10.7497 87.9793 14.8625 84.0967C17.3638 81.7404 20.5884 79.5653 22.7272 78.224C23.2166 77.934 23.9235 77.499 24.7936 76.9733C24.9386 76.8827 25.0111 76.8464 25.0111 76.8464C25.1742 76.7377 25.3555 76.6471 25.5367 76.5383C27.0393 82.0485 25.5911 86.9062 22.0747 90.7308V90.7344ZM46.4285 74.1675C45.2684 77.0132 42.8232 84.2635 41.3369 83.8829C40.0681 83.5566 39.2887 78.0282 41.0832 72.5905C41.9895 69.8535 43.9108 66.5909 45.0527 65.3221C46.8816 63.2739 48.8936 62.6214 49.3648 63.437C49.9992 64.5064 47.1535 72.3911 46.4285 74.1675ZM66.548 83.7741C66.0586 84.0279 65.6055 84.191 65.388 84.0641C65.2249 83.9735 65.5874 83.6291 65.5874 83.6291C65.5874 83.6291 68.1069 80.9284 69.1038 79.6958C69.6838 78.9708 70.3545 78.1189 71.0777 77.1763C71.0777 77.267 71.0958 77.3576 71.0958 77.4663C71.0722 80.7109 67.9564 82.9041 66.5426 83.7741H66.548ZM82.0601 80.2396C81.6975 79.9858 81.7519 79.1339 82.9664 76.4876C83.4376 75.4544 84.5234 73.7143 86.4102 72.0467C86.6238 72.678 86.74 73.3381 86.7546 74.0043C86.7365 78.0826 83.8183 79.6052 82.0619 80.2396H82.0601Z" fill="white"/>
</mask>
<g mask="url(#mask0_1526_203)">
<g filter="url(#filter0_f_1526_203)">
<circle cx="98.002" cy="58" r="68" transform="rotate(90 98.002 58)" fill="url(#paint0_linear_1526_203)"/>
</g>
<g filter="url(#filter1_f_1526_203)">
<circle cx="18.002" cy="58" r="68" transform="rotate(90 18.002 58)" fill="url(#paint1_linear_1526_203)"/>
</g>
</g>
<path d="M54.7101 80.2758C54.6014 80.4716 54.6557 80.3846 54.7101 80.2758V80.2758ZM99.8668 64.5064C96.2212 64.5053 92.6242 65.3425 89.3539 66.9534C88.2844 64.7965 87.1788 62.9114 86.9975 61.4976C86.78 59.8481 86.5444 58.8693 86.7981 56.9117C87.0519 54.9542 88.1938 52.1809 88.1757 51.9815C88.1576 51.7822 87.9219 50.7852 85.5837 50.7671C83.2455 50.749 81.2335 51.2203 80.9997 51.8365C80.5867 52.9628 80.2655 54.1206 80.039 55.2986C79.6221 57.4193 75.3644 64.9958 72.9537 68.9473C72.1562 67.4066 71.4855 66.0471 71.3405 64.9596C71.123 63.3101 70.8873 62.3313 71.1411 60.3738C71.3949 58.4162 72.5368 55.6429 72.5187 55.4436C72.5005 55.2442 72.2649 54.2473 69.9285 54.2291C67.5921 54.211 65.5783 54.6823 65.3427 55.2986C65.107 55.9148 64.8533 57.3649 64.382 58.7606C63.9107 60.1563 58.2392 72.7718 56.7547 76.0525C55.9934 77.7201 55.3409 79.0614 54.8696 79.9677C54.7971 80.1127 54.7427 80.2033 54.7065 80.2758C54.7609 80.1852 54.7971 80.0946 54.7971 80.1308C54.3984 80.9102 54.1627 81.3453 54.1627 81.3453V81.3634C53.8546 81.9434 53.5102 82.4691 53.3471 82.4691C53.2383 82.4691 53.0027 80.9465 53.4014 78.862C54.2533 74.4756 56.2653 67.6603 56.2472 67.4247C56.2291 67.2978 56.6278 66.1196 54.924 65.4852C53.2746 64.8871 52.6764 65.884 52.5314 65.884C52.3864 65.884 52.2776 66.2465 52.2776 66.2465C52.2776 66.2465 54.1083 58.5612 48.7631 58.5612C45.4279 58.5612 40.7877 62.2226 38.5075 65.5396C37.0756 66.319 33.9761 68.0047 30.7134 69.7992C29.4628 70.4879 28.1758 71.1948 26.9614 71.8655C26.8708 71.7749 26.7983 71.6842 26.7076 71.5936C20.2204 64.6696 8.24295 59.7756 8.75047 50.4771C8.93172 47.0876 10.1099 38.1878 31.7829 27.3849C49.5461 18.5395 63.7476 20.9684 66.1928 26.3699C69.7092 34.0733 58.5999 48.4108 40.1533 50.4771C33.1223 51.2565 29.4265 48.5376 28.5021 47.5226C27.5414 46.4532 27.3964 46.3988 27.0339 46.5982C26.4358 46.9245 26.8164 47.867 27.0339 48.4289C27.5777 49.8608 29.8434 52.3984 33.7024 53.6672C37.0919 54.7729 45.3355 55.3892 55.3028 51.5284C66.5009 47.2145 75.2176 35.1971 72.6619 25.1373C70.059 14.9144 53.1078 11.5611 37.0792 17.2526C27.5287 20.6421 17.2007 25.9711 9.77095 32.9132C0.945518 41.1786 -0.466478 48.3745 0.113546 51.3834C2.17807 62.0595 16.8926 69.0197 22.7816 74.1675C22.4916 74.3306 22.2197 74.4756 21.966 74.6206C19.0133 76.0888 7.79524 81.9615 4.98756 88.1605C1.81555 95.1933 5.51321 100.232 7.94025 100.921C15.515 103.024 23.271 99.2354 27.4381 93.0182C31.6052 86.8011 31.0995 78.6808 29.1782 74.9831C29.1601 74.9287 29.1238 74.8925 29.1057 74.8381C29.867 74.385 30.6464 73.9318 31.4258 73.4787C32.9284 72.5905 34.3966 71.7749 35.6835 71.068C34.9585 73.0255 34.4328 75.3819 34.161 78.7895C33.8347 82.7772 35.4841 87.943 37.623 89.9731C38.5655 90.8613 39.7056 90.8794 40.4125 90.8794C42.9139 90.8794 44.0377 88.8131 45.2865 86.348C46.8272 83.3391 48.1867 79.8408 48.1867 79.8408C48.1867 79.8408 46.4828 89.3025 51.1412 89.3025C52.8432 89.3025 54.547 87.1093 55.3101 85.9855V86.0036C55.3101 86.0036 55.3463 85.9311 55.437 85.7861C55.6182 85.5142 55.7089 85.3511 55.7089 85.3511V85.2967C56.3976 84.1185 57.9021 81.4178 60.166 76.9588C63.1023 71.1948 65.91 63.9989 65.91 63.9989C66.1813 65.5808 66.5567 67.143 67.0338 68.6754C67.5413 70.3973 68.6108 72.2824 69.4627 74.1131C68.7739 75.0556 68.357 75.5994 68.357 75.5994C68.3583 75.6133 68.3648 75.6262 68.3751 75.6356C67.8314 76.3607 67.2151 77.1401 66.5807 77.9014C64.2624 80.6565 61.5055 83.8104 61.1429 84.7167C60.7079 85.7861 60.8167 86.5836 61.6505 87.1999C62.2667 87.6711 63.3543 87.7436 64.4944 87.653C66.5789 87.508 68.047 87.0005 68.754 86.6742C70.0572 86.2069 71.2889 85.5603 72.4135 84.7529C74.6793 83.0853 76.0568 80.6927 75.9299 77.5389C75.8574 75.7988 75.2955 74.0587 74.6068 72.4274C74.8061 72.1374 75.0237 71.8292 75.223 71.5211C78.8101 66.2828 81.5834 60.5333 81.5834 60.5333C81.8547 62.1151 82.2301 63.6773 82.7071 65.2097C83.1422 66.6779 83.9923 68.2911 84.7717 69.868C81.4021 72.605 79.3176 75.777 78.5926 77.8615C77.2513 81.7223 78.3026 83.4623 80.2783 83.8611C81.1665 84.0424 82.4353 83.6255 83.3778 83.2267C84.7776 82.7605 86.0975 82.0819 87.2912 81.2148C89.5569 79.5472 91.7483 77.209 91.6033 74.037C91.5489 72.605 91.1501 71.1731 90.6245 69.7955C93.4702 68.5992 97.1661 67.9467 101.879 68.4905C111.971 69.6686 113.947 75.9764 113.566 78.6046C113.186 81.2329 111.065 82.7011 110.358 83.1361C109.651 83.5711 109.434 83.7342 109.488 84.0605C109.579 84.5318 109.905 84.5136 110.503 84.4049C111.337 84.2599 115.794 82.2661 115.993 77.3902C116.283 71.2275 110.358 64.4484 99.8614 64.5028L99.8668 64.5064ZM22.0747 90.7344C18.7414 94.3777 14.0649 95.7552 12.0548 94.5952C9.89783 93.3409 10.7497 87.9793 14.8625 84.0967C17.3638 81.7404 20.5884 79.5653 22.7272 78.224C23.2166 77.934 23.9235 77.499 24.7936 76.9733C24.9386 76.8827 25.0111 76.8464 25.0111 76.8464C25.1742 76.7377 25.3555 76.6471 25.5367 76.5383C27.0393 82.0485 25.5911 86.9062 22.0747 90.7308V90.7344ZM46.4285 74.1675C45.2684 77.0132 42.8232 84.2635 41.3369 83.8829C40.0681 83.5566 39.2887 78.0282 41.0832 72.5905C41.9895 69.8535 43.9108 66.5909 45.0527 65.3221C46.8816 63.2739 48.8936 62.6214 49.3648 63.437C49.9992 64.5064 47.1535 72.3911 46.4285 74.1675ZM66.548 83.7741C66.0586 84.0279 65.6055 84.191 65.388 84.0641C65.2249 83.9735 65.5874 83.6291 65.5874 83.6291C65.5874 83.6291 68.1069 80.9284 69.1038 79.6958C69.6838 78.9708 70.3545 78.1189 71.0777 77.1763C71.0777 77.267 71.0958 77.3576 71.0958 77.4663C71.0722 80.7109 67.9564 82.9041 66.5426 83.7741H66.548ZM82.0601 80.2396C81.6975 79.9858 81.7519 79.1339 82.9664 76.4876C83.4376 75.4544 84.5234 73.7143 86.4102 72.0467C86.6238 72.678 86.74 73.3381 86.7546 74.0043C86.7365 78.0826 83.8183 79.6052 82.0619 80.2396H82.0601Z" fill="#FBF3E4" fill-opacity="0.3"/>
<defs>
<filter id="filter0_f_1526_203" x="2.00195" y="-38" width="192" height="192" filterUnits="userSpaceOnUse" color-interpolation-filters="sRGB">
<feFlood flood-opacity="0" result="BackgroundImageFix"/>
<feBlend mode="normal" in="SourceGraphic" in2="BackgroundImageFix" result="shape"/>
<feGaussianBlur stdDeviation="14" result="effect1_foregroundBlur_1526_203"/>
</filter>
<filter id="filter1_f_1526_203" x="-77.998" y="-38" width="192" height="192" filterUnits="userSpaceOnUse" color-interpolation-filters="sRGB">
<feFlood flood-opacity="0" result="BackgroundImageFix"/>
<feBlend mode="normal" in="SourceGraphic" in2="BackgroundImageFix" result="shape"/>
<feGaussianBlur stdDeviation="14" result="effect1_foregroundBlur_1526_203"/>
</filter>
<linearGradient id="paint0_linear_1526_203" x1="166.002" y1="58" x2="30.002" y2="58" gradientUnits="userSpaceOnUse">
<stop stop-color="#0ACF83"/>
<stop offset="1" stop-color="#1ABCFE"/>
</linearGradient>
<linearGradient id="paint1_linear_1526_203" x1="86.002" y1="58" x2="-49.998" y2="58" gradientUnits="userSpaceOnUse">
<stop stop-color="#A259FF"/>
<stop offset="1" stop-color="#FF7262"/>
</linearGradient>
</defs>
</svg>
