<svg width="100%" height="100%" viewBox="0 0 116 116" fill="none" xmlns="http://www.w3.org/2000/svg">
<mask id="mask0_1526_236" style="mask-type:luminance" maskUnits="userSpaceOnUse" x="0" y="23" width="117" height="70">
<path d="M95.7029 43.5575C91.353 42.0594 87.5135 39.3657 84.6245 35.7853C81.4405 31.7961 77.3863 28.5881 72.7719 26.4066C68.1575 24.225 63.1053 23.1279 58.0017 23.1989C51.1364 22.7127 44.3399 24.8302 38.9656 29.1297C33.5913 33.4291 30.0335 39.5951 29.0009 46.3996C31.0348 42.9963 34.0961 40.3261 37.744 38.7731C41.392 37.2201 45.4386 36.8645 49.3015 37.7574C53.644 39.2991 57.4773 42.0085 60.3798 45.5876C63.5813 49.5449 67.6432 52.7198 72.2566 54.8707C76.87 57.0216 81.9133 58.0919 87.0026 58C93.8679 58.4862 100.664 56.3687 106.039 52.0693C111.413 47.7698 114.971 41.6038 116.003 34.7993C114.006 38.2433 110.955 40.9539 107.3 42.5309C103.644 44.108 99.5785 44.4679 95.7029 43.5575ZM20.3006 72.4424C24.6504 73.9405 28.49 76.6342 31.3789 80.2146C34.563 84.2038 38.6172 87.4119 43.2316 89.5934C47.846 91.7749 52.8982 92.8721 58.0017 92.801C64.867 93.2872 71.6636 91.1697 77.0379 86.8703C82.4122 82.5708 85.9699 76.4049 87.0026 69.6003C84.9686 73.0036 81.9074 75.6739 78.2595 77.2269C74.6115 78.7798 70.5649 79.1355 66.702 78.2426C62.3595 76.7008 58.5262 73.9915 55.6237 70.4123C52.4136 66.4648 48.35 63.2969 43.7386 61.1469C39.1272 58.997 34.0882 57.921 29.0009 58C22.1356 57.5138 15.339 59.6312 9.96473 63.9307C4.59042 68.2301 1.03267 74.3961 0 81.2007C1.99704 77.7567 5.04852 75.0461 8.70394 73.469C12.3594 71.892 16.425 71.5321 20.3006 72.4424Z" fill="white"/>
</mask>
<g mask="url(#mask0_1526_236)">
<g filter="url(#filter0_f_1526_236)">
<circle cx="68" cy="68" r="68" transform="matrix(0 -1 -1 0 166.002 126)" fill="url(#paint0_linear_1526_236)"/>
</g>
<g filter="url(#filter1_f_1526_236)">
<circle cx="68" cy="68" r="68" transform="matrix(0 -1 -1 0 86.002 126)" fill="url(#paint1_linear_1526_236)"/>
</g>
</g>
<path d="M95.7029 43.5575C91.353 42.0594 87.5135 39.3657 84.6245 35.7853C81.4405 31.7961 77.3863 28.5881 72.7719 26.4066C68.1575 24.225 63.1053 23.1279 58.0017 23.1989C51.1364 22.7127 44.3399 24.8302 38.9656 29.1297C33.5913 33.4291 30.0335 39.5951 29.0009 46.3996C31.0348 42.9963 34.0961 40.3261 37.744 38.7731C41.392 37.2201 45.4386 36.8645 49.3015 37.7574C53.644 39.2991 57.4773 42.0085 60.3798 45.5876C63.5813 49.5449 67.6432 52.7198 72.2566 54.8707C76.87 57.0216 81.9133 58.0919 87.0026 58C93.8679 58.4862 100.664 56.3687 106.039 52.0693C111.413 47.7698 114.971 41.6038 116.003 34.7993C114.006 38.2433 110.955 40.9539 107.3 42.5309C103.644 44.108 99.5785 44.4679 95.7029 43.5575ZM20.3006 72.4424C24.6504 73.9405 28.49 76.6342 31.3789 80.2146C34.563 84.2038 38.6172 87.4119 43.2316 89.5934C47.846 91.7749 52.8982 92.8721 58.0017 92.801C64.867 93.2872 71.6636 91.1697 77.0379 86.8703C82.4122 82.5708 85.9699 76.4049 87.0026 69.6003C84.9686 73.0036 81.9074 75.6739 78.2595 77.2269C74.6115 78.7798 70.5649 79.1355 66.702 78.2426C62.3595 76.7008 58.5262 73.9915 55.6237 70.4123C52.4136 66.4648 48.35 63.2969 43.7386 61.1469C39.1272 58.997 34.0882 57.921 29.0009 58C22.1356 57.5138 15.339 59.6312 9.96473 63.9307C4.59042 68.2301 1.03267 74.3961 0 81.2007C1.99704 77.7567 5.04852 75.0461 8.70394 73.469C12.3594 71.892 16.425 71.5321 20.3006 72.4424Z" fill="#FBF3E4" fill-opacity="0.3"/>
<defs>
<filter id="filter0_f_1526_236" x="2.00195" y="-38" width="192" height="192" filterUnits="userSpaceOnUse" color-interpolation-filters="sRGB">
<feFlood flood-opacity="0" result="BackgroundImageFix"/>
<feBlend mode="normal" in="SourceGraphic" in2="BackgroundImageFix" result="shape"/>
<feGaussianBlur stdDeviation="14" result="effect1_foregroundBlur_1526_236"/>
</filter>
<filter id="filter1_f_1526_236" x="-77.998" y="-38" width="192" height="192" filterUnits="userSpaceOnUse" color-interpolation-filters="sRGB">
<feFlood flood-opacity="0" result="BackgroundImageFix"/>
<feBlend mode="normal" in="SourceGraphic" in2="BackgroundImageFix" result="shape"/>
<feGaussianBlur stdDeviation="14" result="effect1_foregroundBlur_1526_236"/>
</filter>
<linearGradient id="paint0_linear_1526_236" x1="136" y1="68" x2="0" y2="68" gradientUnits="userSpaceOnUse">
<stop stop-color="#A259FF"/>
<stop offset="1" stop-color="#FF7262"/>
</linearGradient>
<linearGradient id="paint1_linear_1526_236" x1="136" y1="68" x2="0" y2="68" gradientUnits="userSpaceOnUse">
<stop stop-color="#0ACF83"/>
<stop offset="1" stop-color="#1ABCFE"/>
</linearGradient>
</defs>
</svg>
