<svg width="100%" height="100%" viewBox="0 0 116 116" fill="none" xmlns="http://www.w3.org/2000/svg">
<mask id="mask0_1526_165" style="mask-type:luminance" maskUnits="userSpaceOnUse" x="0" y="0" width="117" height="117">
<path d="M0 58.0017V116.003H116.003V0H0V58.0017ZM93.4843 53.3809C96.4327 54.1156 98.6754 55.4255 100.739 57.5619C101.808 58.7026 103.393 60.781 103.519 61.2837C103.557 61.4287 98.5111 64.8121 95.4564 66.7117C95.3452 66.7842 94.9005 66.3056 94.4075 65.571C92.9091 63.3959 91.3479 62.4582 88.9553 62.2939C85.4365 62.0522 83.1745 63.8937 83.1938 66.9678C83.1618 67.7238 83.332 68.4746 83.6868 69.1429C84.4602 70.7428 85.9006 71.7046 90.4054 73.6525C98.7141 77.2293 102.267 79.5832 104.476 82.9328C106.941 86.6691 107.497 92.6384 105.819 97.0756C103.983 101.899 99.415 105.176 92.9864 106.259C90.9999 106.612 86.2872 106.559 84.1508 106.172C79.4914 105.341 75.0736 103.04 72.3475 100.019C71.2793 98.8446 69.1961 95.7657 69.3266 95.5482C69.3797 95.4708 69.8582 95.176 70.3899 94.8667C70.9119 94.5718 72.8598 93.4456 74.7014 92.3774L78.0365 90.444L78.7374 91.4784C79.7137 92.9671 81.8453 95.0117 83.1358 95.6932C86.8383 97.6459 91.9182 97.3704 94.422 95.1228C94.9255 94.6987 95.324 94.1639 95.5865 93.5602C95.8489 92.9564 95.9682 92.3002 95.9349 91.6427C95.9349 90.299 95.7657 89.7093 95.0648 88.6943C94.1658 87.4086 92.3242 86.3259 87.0944 84.0542C81.1106 81.4779 78.5343 79.8781 76.1756 77.3356C74.7034 75.6578 73.6162 73.6781 72.9903 71.5355C72.5505 69.8969 72.4393 65.7885 72.7873 64.1354C74.0199 58.3497 78.3845 54.3235 84.6825 53.1248C86.7271 52.7381 91.4784 52.8831 93.4843 53.3809ZM66.2525 58.2241L66.2911 62.9754H51.1865V105.877H40.5045V62.9754H25.4144V58.3159C25.4144 55.7348 25.4676 53.5791 25.5401 53.5308C25.5981 53.4534 34.7865 53.4148 45.9229 53.4341L66.1993 53.4921L66.2525 58.2241Z" fill="white"/>
</mask>
<g mask="url(#mask0_1526_165)">
<g filter="url(#filter0_f_1526_165)">
<circle cx="58.002" cy="98.0017" r="68" transform="rotate(180 58.002 98.0017)" fill="url(#paint0_linear_1526_165)"/>
</g>
<g filter="url(#filter1_f_1526_165)">
<circle cx="58.002" cy="18.0017" r="68" transform="rotate(180 58.002 18.0017)" fill="url(#paint1_linear_1526_165)"/>
</g>
</g>
<path d="M0 58.0017V116.003H116.003V0H0V58.0017ZM93.4843 53.3809C96.4327 54.1156 98.6754 55.4255 100.739 57.5619C101.808 58.7026 103.393 60.781 103.519 61.2837C103.557 61.4287 98.5111 64.8121 95.4564 66.7117C95.3452 66.7842 94.9005 66.3056 94.4075 65.571C92.9091 63.3959 91.3479 62.4582 88.9553 62.2939C85.4365 62.0522 83.1745 63.8937 83.1938 66.9678C83.1618 67.7238 83.332 68.4746 83.6868 69.1429C84.4602 70.7428 85.9006 71.7046 90.4054 73.6525C98.7141 77.2293 102.267 79.5832 104.476 82.9328C106.941 86.6691 107.497 92.6384 105.819 97.0756C103.983 101.899 99.415 105.176 92.9864 106.259C90.9999 106.612 86.2872 106.559 84.1508 106.172C79.4914 105.341 75.0736 103.04 72.3475 100.019C71.2793 98.8446 69.1961 95.7657 69.3266 95.5482C69.3797 95.4708 69.8582 95.176 70.3899 94.8667C70.9119 94.5718 72.8598 93.4456 74.7014 92.3774L78.0365 90.444L78.7374 91.4784C79.7137 92.9671 81.8453 95.0117 83.1358 95.6932C86.8383 97.6459 91.9182 97.3704 94.422 95.1228C94.9255 94.6987 95.324 94.1639 95.5865 93.5602C95.8489 92.9564 95.9682 92.3002 95.9349 91.6427C95.9349 90.299 95.7657 89.7093 95.0648 88.6943C94.1658 87.4086 92.3242 86.3259 87.0944 84.0542C81.1106 81.4779 78.5343 79.8781 76.1756 77.3356C74.7034 75.6578 73.6162 73.6781 72.9903 71.5355C72.5505 69.8969 72.4393 65.7885 72.7873 64.1354C74.0199 58.3497 78.3845 54.3235 84.6825 53.1248C86.7271 52.7381 91.4784 52.8831 93.4843 53.3809ZM66.2525 58.2241L66.2911 62.9754H51.1865V105.877H40.5045V62.9754H25.4144V58.3159C25.4144 55.7348 25.4676 53.5791 25.5401 53.5308C25.5981 53.4534 34.7865 53.4148 45.9229 53.4341L66.1993 53.4921L66.2525 58.2241Z" fill="#FBF3E4" fill-opacity="0.3"/>
<defs>
<filter id="filter0_f_1526_165" x="-37.998" y="2.00171" width="192" height="192" filterUnits="userSpaceOnUse" color-interpolation-filters="sRGB">
<feFlood flood-opacity="0" result="BackgroundImageFix"/>
<feBlend mode="normal" in="SourceGraphic" in2="BackgroundImageFix" result="shape"/>
<feGaussianBlur stdDeviation="14" result="effect1_foregroundBlur_1526_165"/>
</filter>
<filter id="filter1_f_1526_165" x="-37.998" y="-77.9983" width="192" height="192" filterUnits="userSpaceOnUse" color-interpolation-filters="sRGB">
<feFlood flood-opacity="0" result="BackgroundImageFix"/>
<feBlend mode="normal" in="SourceGraphic" in2="BackgroundImageFix" result="shape"/>
<feGaussianBlur stdDeviation="14" result="effect1_foregroundBlur_1526_165"/>
</filter>
<linearGradient id="paint0_linear_1526_165" x1="126.002" y1="98.0017" x2="-9.99805" y2="98.0017" gradientUnits="userSpaceOnUse">
<stop stop-color="#A259FF"/>
<stop offset="1" stop-color="#FF7262"/>
</linearGradient>
<linearGradient id="paint1_linear_1526_165" x1="126.002" y1="18.0017" x2="-9.99805" y2="18.0017" gradientUnits="userSpaceOnUse">
<stop stop-color="#0ACF83"/>
<stop offset="1" stop-color="#1ABCFE"/>
</linearGradient>
</defs>
</svg>
