<svg width="100%" height="100%" viewBox="0 0 924 164" fill="none" xmlns="http://www.w3.org/2000/svg">
<path d="M141.632 161.184H116.357L102.767 122.318H38.8653L25.5128 161.184H0L57.4634 2.38438H84.4069L141.632 161.184ZM70.3391 29.0894L45.5416 102.29H95.8519L70.3391 29.0894Z" fill="#171413"/>
<path d="M154.269 2.38438H177.874V100.144C177.874 112.86 181.212 122.795 187.889 129.948C194.724 136.943 204.261 140.44 216.501 140.44C228.423 140.44 237.643 136.943 244.16 129.948C250.677 122.795 253.936 112.86 253.936 100.144V2.38438H277.78V100.144C277.78 112.701 275.157 123.749 269.911 133.287C264.825 142.665 257.671 149.977 248.452 155.223C239.391 160.468 228.741 163.091 216.501 163.091C204.103 163.091 193.214 160.468 183.835 155.223C174.457 149.977 167.145 142.665 161.899 133.287C156.812 123.749 154.269 112.701 154.269 100.144V2.38438Z" fill="#171413"/>
<path d="M359.564 98.7131H325.229V161.184H301.623V2.38438H370.293C380.467 2.38438 389.289 4.29188 396.76 8.10688C404.39 11.9219 410.271 17.3265 414.404 24.3206C418.537 31.1558 420.604 39.2627 420.604 48.6413C420.604 58.6556 417.901 67.1599 412.497 74.1541C407.092 81.1482 399.701 86.0759 390.322 88.9372C398.747 90.6857 404.946 94.2623 408.92 99.6669C413.053 105.071 415.756 113.099 417.027 123.749L421.319 161.184H397.952L393.899 126.372C392.786 116.675 389.527 109.681 384.123 105.389C378.877 100.939 370.691 98.7131 359.564 98.7131ZM366.955 23.1284H325.229V77.9691H366.955C376.334 77.9691 383.646 75.6642 388.892 71.0544C394.137 66.2856 396.76 59.6094 396.76 51.0256C396.76 42.2829 394.137 35.4477 388.892 30.52C383.646 25.5923 376.334 23.1284 366.955 23.1284Z" fill="#171413"/>
<path d="M552.698 2.38438V24.7975H467.099V69.1469H545.783V91.56H467.099V139.009H552.698V161.184H443.494V2.38438H552.698Z" fill="#171413"/>
<path d="M671.917 161.184H575.111V2.38438H598.717V139.009H671.917V161.184Z" fill="#171413"/>
<path d="M691.946 2.38438H715.789V161.184H691.946V2.38438Z" fill="#171413"/>
<path d="M738.203 83.6916C738.203 66.842 741.223 52.2178 747.263 39.8191C753.304 27.2614 761.728 17.4854 772.537 10.4913C783.506 3.49708 796.302 0 810.926 0C825.391 0 838.028 3.49708 848.838 10.4913C859.806 17.4854 868.31 27.2614 874.35 39.8191C880.391 52.2178 883.411 66.842 883.411 83.6916C883.411 99.5874 880.391 113.496 874.35 125.418C868.31 137.34 859.806 146.639 848.838 153.315C838.028 159.833 825.391 163.091 810.926 163.091C796.302 163.091 783.506 159.833 772.537 153.315C761.728 146.639 753.304 137.34 747.263 125.418C741.223 113.496 738.203 99.5874 738.203 83.6916ZM859.09 83.6916C859.09 64.2986 854.878 49.1976 846.453 38.3884C838.028 27.4203 826.186 21.9363 810.926 21.9363C795.507 21.9363 783.506 27.4203 774.922 38.3884C766.497 49.1976 762.285 64.2986 762.285 83.6916C762.285 101.813 766.497 115.96 774.922 126.133C783.506 136.148 795.507 141.155 810.926 141.155C826.186 141.155 838.028 136.148 846.453 126.133C854.878 115.96 859.09 101.813 859.09 83.6916Z" fill="#171413"/>
<path d="M896.763 133.763H923.945V161.184H896.763V133.763Z" fill="#171413"/>
</svg>
