<svg width="100%" height="100%" viewBox="0 0 1271 144" fill="none" xmlns="http://www.w3.org/2000/svg">
<path d="M48.3242 127.637H34.0571L31.7559 108.154H16.2615C15.1876 114.751 14.574 121.041 13.8069 127.637H0L16.4149 1.38069H32.8298L48.3242 127.637ZM17.6422 95.1144H30.2218C27.9207 75.9381 25.9263 57.3754 24.0854 37.7389C22.2445 57.3754 20.0967 76.5517 17.6422 95.1144Z" fill="white"/>
<path d="M79.7961 107.541V1.38069H93.9099V107.541C93.9099 121.808 87.1598 129.018 73.8131 129.018C60.4664 129.018 53.7164 121.808 53.7164 107.541V1.38069H67.8301V107.541C67.8301 112.45 69.8245 114.904 73.8131 114.904C77.8018 114.904 79.7961 112.45 79.7961 107.541Z" fill="white"/>
<path d="M131.672 49.8583V27.0002C131.672 19.1763 130.598 15.6478 123.848 15.6478H118.478V57.9891H124.001C129.064 57.9891 131.672 55.2277 131.672 49.8583ZM147.166 127.637H131.672C129.37 108.461 127.376 90.0518 124.308 70.8755H118.478V127.637H104.211V1.38069H123.848C138.575 1.38069 146.092 7.5171 146.092 24.0854V49.7049C146.092 59.5232 143.484 64.7391 137.808 67.9608C141.49 88.2109 144.251 107.847 147.166 127.637Z" fill="white"/>
<path d="M190.126 127.637H155.302V1.38069H189.359V15.6478H169.415V56.1482H182.762V70.4153H169.415V113.524H190.126V127.637Z" fill="white"/>
<path d="M233.272 127.637H198.448V1.38069H212.562V113.524H233.272V127.637Z" fill="white"/>
<path d="M254.667 127.637H240.553V1.38069H254.667V127.637Z" fill="white"/>
<path d="M265.094 107.541V21.4774C265.094 7.21028 271.844 0 285.191 0C298.691 0 305.441 7.21028 305.441 21.4774V107.541C305.441 121.808 298.691 129.018 285.191 129.018C271.844 129.018 265.094 121.808 265.094 107.541ZM291.327 107.541V21.4774C291.327 16.7217 289.333 14.2672 285.191 14.2672C281.202 14.2672 279.208 16.7217 279.208 21.4774V107.541C279.208 112.45 281.202 114.904 285.191 114.904C289.333 114.904 291.327 112.45 291.327 107.541Z" fill="white"/>
<path d="M355.187 128.404H353.499L348.897 122.421C345.982 127.177 339.999 129.018 333.709 129.018C322.817 129.018 314.533 123.649 314.533 107.541V21.6308C314.533 7.5171 321.283 0 334.783 0C348.437 0 354.266 7.5171 354.266 21.6308V43.8753H341.533V21.4774C341.533 16.7217 339.232 14.2672 334.783 14.2672C330.641 14.2672 328.647 16.7217 328.647 21.4774V107.541C328.647 112.603 331.101 114.904 334.63 114.904C338.925 114.904 341.226 112.757 341.533 108.461V81.3074H334.016V67.8073H355.187V128.404Z" fill="white"/>
<path d="M409.378 127.637H395.111L392.809 108.154H377.315C376.241 114.751 375.627 121.041 374.86 127.637H361.053L377.468 1.38069H393.883L409.378 127.637ZM378.696 95.1144H391.275C388.974 75.9381 386.98 57.3754 385.139 37.7389C383.298 57.3754 381.15 76.5517 378.696 95.1144Z" fill="white"/>
<path d="M444.035 49.8583V27.0002C444.035 19.1763 442.961 15.6478 436.211 15.6478H430.842V57.9891H436.365C441.427 57.9891 444.035 55.2277 444.035 49.8583ZM459.53 127.637H444.035C441.734 108.461 439.74 90.0518 436.672 70.8755H430.842V127.637H416.575V1.38069H436.211C450.939 1.38069 458.456 7.5171 458.456 24.0854V49.7049C458.456 59.5232 455.848 64.7391 450.172 67.9608C453.854 88.2109 456.615 107.847 459.53 127.637Z" fill="white"/>
<path d="M502.489 127.637H467.665V1.38069H501.722V15.6478H481.779V56.1482H495.126V70.4153H481.779V113.524H502.489V127.637Z" fill="white"/>
<path d="M536.125 107.541V81.3074H549.011V107.387C549.011 122.115 543.335 129.018 530.295 129.018C516.641 129.018 509.891 121.961 509.891 107.694V21.7843C509.891 7.21028 516.641 0 530.295 0C542.721 0 549.011 7.21028 549.011 21.4774V43.8753H536.125V21.4774C536.125 16.5683 534.59 14.2672 530.295 14.2672C526.306 14.2672 524.312 16.7217 524.312 21.4774V107.541C524.312 112.45 526.306 114.904 530.295 114.904C534.13 114.904 536.125 112.45 536.125 107.541Z" fill="white"/>
<path d="M600.691 127.637H586.424L584.123 108.154H568.628C567.554 114.751 566.941 121.041 566.174 127.637H552.367L568.782 1.38069H585.197L600.691 127.637ZM570.009 95.1144H582.589C580.288 75.9381 578.293 57.3754 576.452 37.7389C574.611 57.3754 572.464 76.5517 570.009 95.1144Z" fill="white"/>
<path d="M620.314 127.637H607.121V108.461H620.314V127.637Z" fill="white"/>
<path d="M656.294 106.16V23.0115C656.294 18.1024 654.3 15.6478 650.158 15.6478H644.328V113.524H650.158C654.3 113.524 656.294 111.069 656.294 106.16ZM650.158 127.637H630.214V1.38069H650.158C663.658 1.38069 670.408 9.51143 670.408 23.0115V106.16C670.408 120.427 663.658 127.637 650.158 127.637Z" fill="white"/>
<path d="M715.226 127.637H680.402V1.38069H714.459V15.6478H694.516V56.1482H707.863V70.4153H694.516V113.524H715.226V127.637Z" fill="white"/>
<path d="M753.004 127.637H734.134L719.714 1.38069H734.441C738.123 43.2617 743.339 91.4325 743.952 103.092C744.719 91.4325 750.242 43.4151 754.384 1.38069H768.498L753.004 127.637Z" fill="white"/>
<path d="M836.128 117.973H845.333C845.486 119.046 845.639 119.967 845.639 121.041C845.639 132.853 839.043 143.439 810.202 143.439C788.264 143.439 774.457 134.081 774.457 105.239V51.6993C774.457 26.3866 785.349 16.4149 809.895 16.4149C833.367 16.4149 843.952 26.0797 843.952 48.7845V95.2678C843.952 105.853 837.969 112.143 829.378 112.143C823.702 112.143 819.099 109.688 817.412 106.16C816.338 108.768 813.423 111.529 808.054 111.529C800.69 111.529 795.781 108.154 795.781 97.2621V63.8187C795.781 51.3924 800.537 48.1708 808.054 48.1708C812.349 48.1708 815.111 50.0117 816.491 53.6936C816.491 51.8527 816.645 50.3186 816.798 48.9379H823.702V98.336C824.315 100.791 825.389 102.938 828.918 102.938C832.139 102.938 834.44 101.097 834.44 95.728V48.4776C834.44 35.5912 827.23 27.4604 809.895 27.4604C791.639 27.4604 785.349 36.2048 785.349 51.6993V105.546C785.349 125.643 794.707 131.933 811.889 131.933C830.759 131.933 836.281 126.87 836.281 120.12C836.281 119.046 836.281 118.279 836.128 117.973ZM815.264 98.9496V62.7448C814.497 59.83 812.963 58.2959 810.662 58.2959C807.133 58.2959 805.139 59.9834 805.139 64.2789V96.0348C805.139 100.791 806.827 102.631 810.662 102.631C812.963 102.631 814.497 101.404 815.264 98.9496Z" fill="white"/>
<path d="M895.119 128.404H893.432L888.829 122.421C885.914 127.177 879.931 129.018 873.642 129.018C862.749 129.018 854.465 123.649 854.465 107.541V21.6308C854.465 7.5171 861.215 0 874.715 0C888.369 0 894.199 7.5171 894.199 21.6308V43.8753H881.466V21.4774C881.466 16.7217 879.164 14.2672 874.715 14.2672C870.573 14.2672 868.579 16.7217 868.579 21.4774V107.541C868.579 112.603 871.034 114.904 874.562 114.904C878.858 114.904 881.159 112.757 881.466 108.461V81.3074H873.948V67.8073H895.119V128.404Z" fill="white"/>
<path d="M964.037 127.637H950.998V90.8189C950.998 74.2506 951.151 57.9891 951.611 41.4208C948.696 62.1312 945.935 82.995 940.259 127.637H927.986L916.94 41.4208C917.401 57.9891 917.554 74.2506 917.554 90.8189V127.637H904.514V1.38069H923.384C929.52 58.4493 931.975 76.7051 933.969 94.6541C935.963 77.012 938.571 58.1425 944.708 1.38069H964.037V127.637Z" fill="white"/>
<path d="M1018.97 127.637H1004.71L1002.41 108.154H986.911C985.837 114.751 985.224 121.041 984.457 127.637H970.65L987.065 1.38069H1003.48L1018.97 127.637ZM988.292 95.1144H1000.87C998.57 75.9381 996.576 57.3754 994.735 37.7389C992.894 57.3754 990.746 76.5517 988.292 95.1144Z" fill="white"/>
<path d="M1040.74 127.637H1026.63V1.38069H1040.74V127.637Z" fill="white"/>
<path d="M1086.92 127.637H1052.09V1.38069H1066.21V113.524H1086.92V127.637Z" fill="white"/>
<path d="M1106.16 127.637H1092.97V108.461H1106.16V127.637Z" fill="white"/>
<path d="M1139.88 107.541V81.3074H1152.76V107.387C1152.76 122.115 1147.09 129.018 1134.05 129.018C1120.39 129.018 1113.64 121.961 1113.64 107.694V21.7843C1113.64 7.21028 1120.39 0 1134.05 0C1146.47 0 1152.76 7.21028 1152.76 21.4774V43.8753H1139.88V21.4774C1139.88 16.5683 1138.34 14.2672 1134.05 14.2672C1130.06 14.2672 1128.07 16.7217 1128.07 21.4774V107.541C1128.07 112.45 1130.06 114.904 1134.05 114.904C1137.88 114.904 1139.88 112.45 1139.88 107.541Z" fill="white"/>
<path d="M1161.14 107.541V21.4774C1161.14 7.21028 1167.89 0 1181.23 0C1194.73 0 1201.48 7.21028 1201.48 21.4774V107.541C1201.48 121.808 1194.73 129.018 1181.23 129.018C1167.89 129.018 1161.14 121.808 1161.14 107.541ZM1187.37 107.541V21.4774C1187.37 16.7217 1185.37 14.2672 1181.23 14.2672C1177.24 14.2672 1175.25 16.7217 1175.25 21.4774V107.541C1175.25 112.45 1177.24 114.904 1181.23 114.904C1185.37 114.904 1187.37 112.45 1187.37 107.541Z" fill="white"/>
<path d="M1270.56 127.637H1257.52V90.8189C1257.52 74.2506 1257.67 57.9891 1258.13 41.4208C1255.22 62.1312 1252.46 82.995 1246.78 127.637H1234.51L1223.46 41.4208C1223.92 57.9891 1224.07 74.2506 1224.07 90.8189V127.637H1211.04V1.38069H1229.9C1236.04 58.4493 1238.5 76.7051 1240.49 94.6541C1242.48 77.012 1245.09 58.1425 1251.23 1.38069H1270.56V127.637Z" fill="white"/>
</svg>
