<svg width="20" height="20" viewBox="0 0 20 20" fill="none" xmlns="http://www.w3.org/2000/svg">
<path d="M0 13.9227C0 12.6704 0.343769 11.5777 1.03131 10.6446C1.7434 9.68692 2.7256 8.95028 3.9779 8.43462C5.2302 7.91897 6.66667 7.66114 8.28729 7.66114C9.09761 7.66114 9.9202 7.72253 10.7551 7.8453C11.5899 7.96808 12.3143 8.16452 12.9282 8.43462V7.40332C12.9282 6.17557 12.5599 5.2302 11.8232 4.56722C11.1111 3.90424 10.043 3.57275 8.61878 3.57275C7.56292 3.57275 6.55617 3.75691 5.59853 4.12523C4.64088 4.49356 3.63413 5.03376 2.57827 5.74586L0.994475 2.5046C2.27133 1.66974 3.57274 1.04359 4.89871 0.626152C6.24923 0.208717 7.66114 0 9.13444 0C11.8846 0 14.0209 0.687539 15.5433 2.06262C17.0902 3.43769 17.8637 5.40209 17.8637 7.9558V14.1068C17.8637 14.6225 17.9497 14.9908 18.1215 15.2118C18.318 15.4328 18.6249 15.5678 19.0424 15.6169V19.6317C18.6004 19.7053 18.1952 19.7667 17.8269 19.8158C17.4831 19.8649 17.1885 19.8895 16.9429 19.8895C15.9607 19.8895 15.2118 19.6685 14.6961 19.2265C14.205 18.7845 13.8981 18.2443 13.7753 17.6059L13.6648 16.6114C12.83 17.6918 11.7864 18.5267 10.5341 19.116C9.28177 19.7053 8.00491 20 6.7035 20C5.42664 20 4.27256 19.7422 3.24125 19.2265C2.2345 18.6863 1.43646 17.9619 0.847145 17.0534C0.282382 16.1203 0 15.0767 0 13.9227ZM12.0074 14.9171C12.2775 14.6225 12.4985 14.3278 12.6704 14.0331C12.8422 13.7385 12.9282 13.4684 12.9282 13.2228V11.2707C12.3389 11.0252 11.7004 10.841 11.0129 10.7182C10.3254 10.5709 9.67465 10.4972 9.06077 10.4972C7.78392 10.4972 6.72805 10.7796 5.89319 11.3444C5.08287 11.8846 4.67772 12.609 4.67772 13.5175C4.67772 14.0086 4.81277 14.4751 5.08287 14.9171C5.35298 15.3591 5.74586 15.7152 6.26151 15.9853C6.77716 16.2554 7.39104 16.3904 8.10313 16.3904C8.83978 16.3904 9.56415 16.2554 10.2762 15.9853C10.9883 15.6906 11.5654 15.3346 12.0074 14.9171Z" fill="url(#paint0_linear_2020_403)"/>
<defs>
<linearGradient id="paint0_linear_2020_403" x1="0" y1="10" x2="19.0424" y2="10" gradientUnits="userSpaceOnUse">
<stop stop-color="#FF7262"/>
<stop offset="1" stop-color="#A259FF"/>
</linearGradient>
</defs>
</svg>
