<svg viewBox="0 0 461 81" fill="none" xmlns="http://www.w3.org/2000/svg">
<path d="M52.6967 19.4345C52.6768 20.1101 52.498 20.6664 52.1602 21.1036C51.9416 21.3818 51.6734 21.5805 51.3555 21.6997C51.0574 21.799 50.7792 21.7891 50.5209 21.6699C50.4017 21.6103 50.3024 21.5308 50.2229 21.4314L50.0739 21.193C50.054 21.1533 50.0341 21.1235 50.0143 21.1036C50.0143 21.1036 50.0143 21.0936 50.0143 21.0738C49.9944 21.0738 49.9248 21.1036 49.8056 21.1632C49.6864 21.2228 49.5374 21.2923 49.3586 21.3718C49.1996 21.4513 49.0406 21.5507 48.8817 21.6699C47.6299 22.4845 46.3781 23.4383 45.1263 24.5311C42.6426 26.6771 40.2184 28.9323 37.8539 31.2968C35.0722 34.0587 32.3599 36.8802 29.7173 39.7613C30.214 39.7812 30.7107 39.7911 31.2075 39.7911C32.3997 39.7713 33.572 39.7911 34.7244 39.8507C36.1749 39.9302 37.6254 40.0594 39.0759 40.2382C39.7912 40.3375 40.4966 40.4568 41.1921 40.5958C41.5497 40.6753 41.9074 40.7846 42.265 40.9237C42.2849 40.9237 42.3147 40.9336 42.3545 40.9535C42.4935 41.0131 42.6525 41.1025 42.8313 41.2217C42.8909 41.2416 42.9505 41.3211 43.0102 41.4602C43.0896 41.5993 43.1194 41.7682 43.0996 41.9669C43.0996 42.1656 43.0101 42.3643 42.8313 42.563C42.6922 42.7219 42.5333 42.8312 42.3545 42.8908C42.1756 42.9305 42.0167 42.9007 41.8776 42.8014C41.7385 42.6822 41.6888 42.5133 41.7285 42.2947C41.7087 42.2748 41.6789 42.255 41.6391 42.2351C41.5994 42.1954 41.5497 42.1755 41.4901 42.1755C41.2119 42.0761 40.904 41.9967 40.5662 41.9371C39.9105 41.8178 39.225 41.7185 38.5096 41.639C37.1188 41.4999 35.6981 41.4105 34.2476 41.3708C32.5189 41.331 30.7902 41.341 29.0616 41.4006C28.7834 41.4006 28.5151 41.4006 28.2568 41.4006C28.1774 41.4801 28.1078 41.5496 28.0482 41.6092C28.0085 41.6688 27.9588 41.7284 27.8992 41.788C28.4555 42.3047 28.7834 42.9405 28.8827 43.6955C28.9821 44.4506 28.9622 45.1758 28.8231 45.8713C28.4456 47.4807 27.9091 49.0306 27.2137 50.5208C25.8029 53.5013 24.1736 56.3824 22.3257 59.1642C20.4778 61.9658 18.5107 64.688 16.4244 67.3307C14.338 69.9932 12.063 72.5564 9.5991 75.0203C8.38704 76.2522 7.00609 77.4046 5.45624 78.4776C5.33703 78.5571 5.20787 78.6366 5.06878 78.716C4.41308 79.1929 3.56861 79.5208 2.53539 79.6996C1.85981 79.7791 1.29352 79.64 0.836518 79.2823C0.379513 78.9445 0.111271 78.5074 0.0317917 77.9709C-0.0476875 77.0967 0.0218568 76.282 0.240424 75.5269C0.458992 74.7719 0.737169 74.0566 1.07496 73.381C1.15443 73.2022 1.22398 73.0233 1.28359 72.8445C2.01877 71.3344 2.83343 69.8641 3.72757 68.4334C5.51585 65.6119 7.42335 62.86 9.45007 60.1775C13.4836 54.8127 17.7159 49.5869 22.1469 44.5003C22.4449 44.1625 22.743 43.8247 23.041 43.4869C23.2993 43.2087 23.5477 42.9305 23.7861 42.6524C23.2496 42.5729 22.743 42.4636 22.2661 42.3245C22.2462 42.3245 22.2363 42.3245 22.2363 42.3245C22.0575 42.2649 21.8588 42.1854 21.6402 42.0861C21.6402 42.0662 21.6303 42.0563 21.6104 42.0563C21.5905 42.0364 21.5607 42.0265 21.521 42.0265C21.5011 42.0066 21.4713 41.9867 21.4316 41.9669C21.3918 41.9271 21.3521 41.8675 21.3123 41.788C21.2527 41.6887 21.1931 41.5496 21.1335 41.3708C21.2329 41.033 21.3421 40.7846 21.4614 40.6257C21.5607 40.4468 21.67 40.3276 21.7892 40.268C21.8886 40.2084 21.968 40.1786 22.0277 40.1786C22.1071 40.1587 22.1667 40.1289 22.2065 40.0892C22.6834 39.9501 23.0708 39.8706 23.3689 39.8507C23.4285 39.8507 23.498 39.8507 23.5775 39.8507C24.3723 39.7713 25.1373 39.7216 25.8725 39.7017C25.9718 39.7017 26.0712 39.7017 26.1705 39.7017C26.25 39.7017 26.3295 39.7017 26.4089 39.7017C29.4888 36.2642 32.658 32.8864 35.9166 29.5681C38.301 27.144 40.7947 24.7894 43.3976 22.5044C44.6891 21.352 46.1098 20.2591 47.6597 19.2259C47.8385 19.1265 48.0173 19.0272 48.1962 18.9278C48.5141 18.7093 48.8817 18.5106 49.2989 18.3317C49.7162 18.1529 50.2527 18.0238 50.9084 17.9443C51.3853 17.8847 51.8025 18.0337 52.1602 18.3914C52.5377 18.7291 52.7165 19.0769 52.6967 19.4345ZM22.8622 40.4468C22.8423 40.4468 22.8324 40.4468 22.8324 40.4468H22.8622ZM25.2764 50.1333C25.8923 48.8815 26.3493 47.6198 26.6474 46.3482C26.9653 45.0566 26.8759 44.0929 26.3791 43.4571C26.0811 43.7949 25.7731 44.1426 25.4552 44.5003C25.0181 44.9573 24.5809 45.4341 24.1438 45.9309C19.7327 50.9182 15.5203 56.0347 11.5066 61.2803C9.49975 63.9031 7.63199 66.5657 5.90332 69.268C5.06878 70.5992 4.3038 71.9603 3.60835 73.3512C2.89304 74.762 2.53539 75.9541 2.53539 76.9278C2.57512 77.0867 2.63473 77.1861 2.71421 77.2258C2.79369 77.2854 2.88311 77.3053 2.98246 77.2854C3.12154 77.3053 3.34011 77.2357 3.63816 77.0768C3.91634 76.9377 4.19451 76.7787 4.47269 76.5999C5.72449 75.7654 6.93654 74.762 8.10886 73.5896C10.4535 71.3046 12.6491 68.8706 14.6957 66.2875C16.7622 63.7243 18.7094 61.0915 20.5374 58.3892C22.3456 55.687 23.9252 52.935 25.2764 50.1333ZM49.6864 20.6863C49.6467 20.6863 49.6367 20.7062 49.6566 20.7459C49.6765 20.7857 49.7162 20.8254 49.7758 20.8651C49.8354 20.9049 49.895 20.9446 49.9546 20.9844C49.9348 20.9844 49.9248 20.9744 49.9248 20.9546C49.8851 20.8751 49.8454 20.8155 49.8056 20.7757C49.7659 20.7161 49.7261 20.6863 49.6864 20.6863Z" fill="currentColor"/>
<path d="M59.9988 35.7675C60.3167 35.9861 60.5552 36.2543 60.7141 36.5722C60.8731 36.8901 60.9426 37.1683 60.9228 37.4067C60.8632 38.1022 60.7241 38.6883 60.5055 39.1652C60.2869 39.6222 60.0386 40.0494 59.7604 40.4468C59.6014 40.6654 59.4524 40.8939 59.3133 41.1323C59.1544 41.3906 58.9358 41.5595 58.6576 41.639C58.3794 41.7185 58.0913 41.6887 57.7933 41.5496C57.535 41.4105 57.3561 41.2019 57.2568 40.9237C57.1773 40.6455 57.2071 40.3773 57.3462 40.119C57.3661 40.0991 57.3859 40.0792 57.4058 40.0594L57.4356 39.9998C57.7138 39.5825 57.9622 39.1553 58.1807 38.7182C58.4192 38.2611 58.5583 37.9035 58.598 37.6452C58.598 37.6452 58.5881 37.6452 58.5682 37.6452C58.1509 37.6651 57.6741 37.7644 57.1376 37.9432C55.0314 38.738 52.9848 39.7713 50.9978 41.0429C49.0307 42.2748 47.153 43.6161 45.3647 45.0666C43.5367 46.517 42.0365 48.0868 40.8642 49.7757C40.8443 49.7956 40.8245 49.8154 40.8046 49.8353C40.8046 49.8552 40.7947 49.875 40.7748 49.8949L40.6556 50.0439C40.437 50.3022 40.1588 50.4513 39.821 50.491C39.4833 50.5307 39.1653 50.4413 38.8673 50.2228C38.609 50.0241 38.46 49.7757 38.4202 49.4776C38.3606 49.1796 38.4202 48.8915 38.5991 48.6133C38.5991 48.6133 38.609 48.6034 38.6289 48.5835C38.6289 48.5835 38.6289 48.5736 38.6289 48.5537C39.7813 46.4674 40.9536 44.4009 42.1458 42.3543L43.7851 39.2248L44.5004 37.6452L44.8282 36.8703L44.9773 36.4828C44.9773 36.4629 44.9872 36.4431 45.0071 36.4232C45.0071 36.3835 45.017 36.3536 45.0369 36.3338C45.0766 36.294 45.1462 36.2742 45.2455 36.2742C45.3449 36.2543 45.5038 36.2642 45.7224 36.304L45.8714 36.3338C46.6662 36.453 47.3914 36.7113 48.0471 37.1087C48.226 37.208 48.3452 37.2975 48.4048 37.3769C48.4843 37.4366 48.524 37.4962 48.524 37.5558C48.524 37.5955 48.5041 37.6352 48.4644 37.675C48.4644 37.6949 48.4545 37.7147 48.4346 37.7346L48.2558 38.1817L47.8385 39.046L46.9444 40.7151C46.8848 40.8144 46.8252 40.9138 46.7655 41.0131C46.7258 41.1125 46.6761 41.2019 46.6165 41.2814C46.9543 41.0429 47.2921 40.8045 47.6299 40.566C48.3055 40.0494 49.0009 39.5726 49.7162 39.1354C51.7429 37.824 53.9683 36.7312 56.3925 35.8569C56.4123 35.8569 56.4322 35.8569 56.4521 35.8569C57.0482 35.6383 57.7237 35.4992 58.4788 35.4396C58.8961 35.3999 59.4027 35.5092 59.9988 35.7675Z" fill="currentColor"/>
<path d="M80.0574 37.675C80.2958 38.9467 80.2163 40.0792 79.8189 41.0727C79.4215 42.0662 78.9447 42.9604 78.3883 43.7551C77.2359 45.3646 75.845 46.7455 74.2157 47.898C73.401 48.4543 72.5069 48.9412 71.5332 49.3584C70.5596 49.7558 69.4866 49.9346 68.3143 49.8949C67.142 49.8949 66.0094 49.4578 64.9166 48.5835C63.9032 47.5701 63.4065 46.4078 63.4264 45.0964C63.4661 43.8843 63.7343 42.7915 64.2311 41.8178C64.7477 40.8244 65.3835 39.97 66.1386 39.2546C66.8738 38.5195 67.6785 37.8836 68.5528 37.3471C68.7515 37.2279 68.9502 37.1087 69.1489 36.9895C69.4668 36.7709 69.8046 36.602 70.1622 36.4828C70.5397 36.3437 70.957 36.3437 71.414 36.4828C71.7717 36.602 72.03 36.8206 72.1889 37.1385C72.3479 37.4564 72.3678 37.7942 72.2486 38.1519C72.2486 38.1916 72.2386 38.2214 72.2188 38.2413L72.1591 38.4201C72.0002 38.7778 71.8015 39.0361 71.563 39.195C71.3445 39.354 71.116 39.4831 70.8775 39.5825C70.6192 39.662 70.3808 39.7911 70.1622 39.9699C69.4668 40.3872 68.8409 40.8641 68.2845 41.4006C67.1122 42.5332 66.4764 43.7551 66.377 45.0666C66.3373 45.8812 66.6552 46.4376 67.3308 46.7356C68.0262 47.0337 68.8707 47.0933 69.8642 46.9144C70.8577 46.7356 71.8015 46.3084 72.6956 45.6328C73.7487 44.9573 74.7223 44.1128 75.6165 43.0994C76.5106 42.0861 77.1465 41.0429 77.524 39.9699L76.9279 39.6123L75.7655 38.7778C75.5668 38.5989 75.3681 38.44 75.1694 38.3009C74.8912 38.1022 74.6131 37.8638 74.3349 37.5856C74.0766 37.2875 73.8282 36.8107 73.5898 36.1549C73.55 35.8569 73.5898 35.5986 73.709 35.38C73.8481 35.1615 74.017 34.9926 74.2157 34.8733C74.4144 34.7343 74.5932 34.6448 74.7521 34.6051C74.931 34.5654 75.0403 34.5654 75.08 34.6051C75.239 34.5852 75.3582 34.5852 75.4377 34.6051C75.537 34.6051 75.6264 34.615 75.7059 34.6349C75.7854 34.6349 75.8748 34.6448 75.9741 34.6647C76.4709 34.7243 76.9875 34.8535 77.524 35.0522C78.0803 35.231 78.5969 35.5489 79.0738 36.0059C79.5507 36.4629 79.8786 37.0193 80.0574 37.675ZM76.6895 37.1683C76.7093 37.208 76.7391 37.2379 76.7789 37.2577C76.8385 37.3372 76.8981 37.4067 76.9577 37.4664L77.7624 38.2711C77.6631 37.7942 77.3054 37.4266 76.6895 37.1683Z" fill="currentColor"/>
<path d="M122.499 43.6061C122.698 43.5664 122.877 43.6061 123.036 43.7253C123.195 43.8247 123.294 43.9638 123.334 44.1426C123.354 44.3413 123.304 44.5201 123.185 44.6791C123.085 44.838 122.946 44.9374 122.768 44.9771C122.112 45.0964 121.466 45.2255 120.83 45.3646C118.307 45.8812 115.773 46.3283 113.23 46.7058C110.707 47.0833 108.094 47.2622 105.391 47.2423C105.272 47.2224 105.123 47.2026 104.944 47.1827C104.607 47.2026 104.219 47.133 103.782 46.9741C103.345 46.7952 102.937 46.368 102.56 45.6924C102.441 45.0765 102.441 44.5797 102.56 44.2022C102.679 43.8048 102.828 43.4571 103.007 43.159C103.106 43.02 103.186 42.8709 103.245 42.712C103.881 41.7582 104.537 40.874 105.213 40.0594C105.471 39.7613 105.709 39.4633 105.928 39.1652L105.987 39.1056C105.968 39.1056 105.938 39.1056 105.898 39.1056C105.878 39.1056 105.858 39.1056 105.838 39.1056C104.567 39.2646 103.275 39.5924 101.964 40.0892C99.3808 41.1025 96.8474 42.3046 94.3636 43.6955C91.8799 45.0864 89.426 46.5469 87.0019 48.0768L85.154 49.2094L84.6473 49.5075L84.3195 49.6863C84.3393 49.6863 84.3294 49.6962 84.2896 49.7161C84.2499 49.736 84.1903 49.7658 84.1108 49.8055C84.0115 49.8254 83.9121 49.8452 83.8128 49.8651C83.6936 49.885 83.5843 49.8949 83.4849 49.8949C83.4849 49.875 83.4849 49.8651 83.4849 49.8651C83.465 49.8651 83.4452 49.875 83.4253 49.8949C83.4054 49.8949 83.3756 49.8949 83.3359 49.8949C83.2962 49.8949 83.2365 49.885 83.1571 49.8651C83.0776 49.8254 82.9782 49.7757 82.859 49.7161C82.7398 49.6366 82.5908 49.5174 82.4119 49.3584C82.253 49.1399 82.1536 48.9412 82.1139 48.7623C82.0543 48.5636 82.0344 48.3848 82.0543 48.2258C82.0543 48.0669 82.0841 47.9278 82.1437 47.8086C82.1834 47.6894 82.2331 47.5999 82.2927 47.5403C82.3325 47.4609 82.3623 47.4112 82.3821 47.3913C82.402 47.3714 82.3921 47.3814 82.3523 47.4211L82.4119 47.3615L89.6247 37.8538C89.8035 37.6949 89.9525 37.5061 90.0718 37.2875C90.1711 37.069 90.3102 36.8802 90.489 36.7212C90.6877 36.5623 90.9858 36.4828 91.3832 36.4828C92.2574 36.5821 92.8138 37.0491 93.0522 37.8836V37.9432C93.1516 38.3406 93.1416 38.6486 93.0224 38.8672C92.9032 39.0857 92.7542 39.2745 92.5753 39.4335C92.4164 39.5924 92.2773 39.7812 92.1581 39.9998L90.8169 41.6688L89.5651 43.2187C93.2013 41.0529 97.046 39.195 101.099 37.6452C102.51 37.1286 104.02 36.7808 105.63 36.602C106.027 36.5623 106.444 36.5623 106.882 36.602C107.1 36.602 107.329 36.6318 107.567 36.6914C107.587 36.7113 107.607 36.7212 107.627 36.7212C107.666 36.7212 107.706 36.7212 107.746 36.7212C107.786 36.7212 107.845 36.7312 107.925 36.751C108.024 36.7709 108.143 36.8305 108.282 36.9299C108.422 37.0093 108.6 37.1484 108.819 37.3471C109.037 37.7644 109.137 38.1022 109.117 38.3605C109.097 38.5989 109.047 38.7877 108.968 38.9268C108.948 38.9864 108.928 39.046 108.908 39.1056C108.789 39.3639 108.66 39.5726 108.521 39.7315L107.806 40.6853C107.507 41.0628 107.18 41.4502 106.822 41.8476C106.286 42.4835 105.799 43.0895 105.362 43.6657C104.944 44.2221 104.716 44.6493 104.676 44.9473C104.656 45.2255 104.964 45.2752 105.6 45.0964C108.143 45.2156 110.746 45.1361 113.409 44.8579C116.071 44.5599 118.724 44.1923 121.367 43.7551C121.744 43.6955 122.122 43.6459 122.499 43.6061ZM84.7665 49.2392L84.7367 49.269C84.697 49.3088 84.687 49.3286 84.7069 49.3286C84.7069 49.3088 84.7268 49.2789 84.7665 49.2392Z" fill="currentColor"/>
<path d="M162.616 23.8158C162.636 23.9748 162.606 24.1238 162.527 24.2629C162.467 24.3821 162.358 24.4715 162.199 24.5311C162.08 24.551 161.971 24.5808 161.871 24.6205C161.812 24.6404 161.772 24.6503 161.752 24.6503C161.732 24.6503 161.712 24.6503 161.692 24.6503L161.543 24.7099C161.504 24.7099 161.474 24.7099 161.454 24.7099C161.375 24.7298 161.305 24.7497 161.245 24.7696L160.947 24.7994L160.679 24.859L160.381 24.9186C160.321 24.9186 160.252 24.9285 160.172 24.9484C160.053 24.9683 159.934 24.9782 159.815 24.9782C159.04 25.0775 158.275 25.167 157.52 25.2464C156.01 25.4054 154.49 25.5445 152.96 25.6637C151.45 25.7829 149.939 25.8922 148.429 25.9916C147.217 26.071 146.015 26.1505 144.823 26.23C144.505 26.2499 144.187 26.2697 143.869 26.2896L139.309 26.528L136.656 26.6473C133.557 30.8 130.646 35.072 127.924 39.4633C127.189 40.6753 126.493 41.8973 125.837 43.1292C125.162 44.3612 124.566 45.613 124.049 46.8846C123.791 47.5205 123.572 48.1563 123.393 48.7921C123.314 49.1101 123.254 49.418 123.215 49.7161C123.175 50.0141 123.175 50.2724 123.215 50.491C123.215 50.5904 123.234 50.6599 123.274 50.6996C123.274 50.7195 123.274 50.7394 123.274 50.7592C123.294 50.7791 123.304 50.7891 123.304 50.7891C123.324 50.7891 123.334 50.7891 123.334 50.7891C123.354 50.8089 123.383 50.8288 123.423 50.8487C123.483 50.8685 123.562 50.8785 123.662 50.8785C123.9 50.8785 124.168 50.8387 124.466 50.7592C124.764 50.6798 125.072 50.5705 125.39 50.4314C125.986 50.193 126.592 49.8949 127.208 49.5373C127.804 49.2193 128.401 48.8617 128.997 48.4643C130.169 47.7092 131.321 46.9045 132.454 46.0501C133.606 45.2156 134.729 44.3413 135.822 43.4273C136.935 42.553 138.037 41.6489 139.13 40.7151C139.269 40.6157 139.418 40.576 139.577 40.5958C139.756 40.5958 139.905 40.6654 140.024 40.8045C140.124 40.9436 140.164 41.0926 140.144 41.2516C140.144 41.4105 140.084 41.5496 139.965 41.6688C138.912 42.6424 137.849 43.6061 136.776 44.5599C135.683 45.5136 134.58 46.4376 133.467 47.3317C132.335 48.2457 131.172 49.12 129.98 49.9545C129.384 50.3718 128.768 50.7692 128.132 51.1467C127.497 51.5441 126.831 51.9018 126.135 52.2197C125.778 52.3786 125.41 52.5177 125.033 52.6369C124.635 52.776 124.198 52.8555 123.721 52.8754C123.463 52.8754 123.195 52.8456 122.917 52.786C122.618 52.7264 122.33 52.5972 122.052 52.3985C121.774 52.1799 121.565 51.9216 121.426 51.6236C121.307 51.3653 121.218 51.107 121.158 50.8487C121.079 50.3519 121.069 49.8949 121.128 49.4776C121.168 49.0604 121.238 48.663 121.337 48.2855C121.516 47.5304 121.734 46.8052 121.993 46.1097C122.529 44.7188 123.125 43.3677 123.781 42.0563C124.437 40.7647 125.132 39.4931 125.867 38.2413C126.582 36.9895 127.318 35.7476 128.073 34.5157C128.848 33.2838 129.633 32.0717 130.427 30.8795C131.341 29.5085 132.275 28.1474 133.229 26.7963L127.924 27.0049L126.225 27.0943C126.205 27.0943 126.195 27.0943 126.195 27.0943C126.155 27.0943 126.116 27.0943 126.076 27.0943C126.036 27.0943 125.996 27.0745 125.957 27.0347C125.897 26.995 125.847 26.9453 125.808 26.8857C125.748 26.8261 125.698 26.7367 125.659 26.6174L125.629 26.5876C125.39 25.9121 125.37 25.2564 125.569 24.6205C125.629 24.5013 125.678 24.402 125.718 24.3225C125.758 24.2629 125.808 24.2132 125.867 24.1735C125.907 24.1337 125.947 24.1139 125.986 24.1139C126.026 24.1139 126.066 24.1139 126.106 24.1139C126.106 24.1139 126.116 24.1139 126.135 24.1139H126.702L127.864 24.0841L134.689 23.9946L135.226 23.9648C135.246 23.945 135.266 23.9152 135.285 23.8754C135.305 23.8555 135.335 23.8257 135.375 23.786C137.064 21.4612 138.783 19.1663 140.531 16.9011C141.425 15.7487 142.319 14.6161 143.214 13.5034L144.555 11.8045L145.24 10.97C145.34 10.8309 145.469 10.7117 145.628 10.6123C145.787 10.513 146.005 10.4633 146.283 10.4633C147.098 10.5428 147.615 10.9601 147.833 11.7151V11.7449C147.893 12.0231 147.883 12.2516 147.803 12.4304C147.744 12.5894 147.654 12.7384 147.535 12.8775L146.85 13.6822L145.479 15.3513C144.585 16.4441 143.69 17.5469 142.796 18.6596C141.425 20.4081 140.064 22.1666 138.713 23.935L143.78 23.8754L148.34 23.8158C149.85 23.7959 151.36 23.7661 152.87 23.7264C154.38 23.7065 155.89 23.6767 157.401 23.637C158.156 23.6171 158.911 23.5873 159.666 23.5476C159.785 23.5277 159.904 23.5178 160.023 23.5178C160.103 23.5178 160.172 23.5178 160.232 23.5178L160.768 23.4582L161.067 23.4283C161.106 23.4283 161.156 23.4283 161.216 23.4283C161.255 23.4283 161.285 23.4184 161.305 23.3985H161.454C161.454 23.3985 161.464 23.3985 161.484 23.3985C161.524 23.3787 161.553 23.3687 161.573 23.3687C161.633 23.3489 161.702 23.3389 161.782 23.3389L161.901 23.3091C162.08 23.2893 162.229 23.329 162.348 23.4283C162.487 23.5078 162.577 23.637 162.616 23.8158Z" fill="currentColor"/>
<path d="M162.02 44.381C162.159 44.5003 162.249 44.6493 162.289 44.8281C162.328 44.9871 162.298 45.146 162.199 45.305C162.08 45.4441 161.931 45.5335 161.752 45.5732C161.593 45.613 161.434 45.5832 161.275 45.4838C161.394 45.5236 161.454 45.5534 161.454 45.5732C161.474 45.5931 161.454 45.613 161.394 45.6328C161.355 45.6328 161.295 45.6428 161.216 45.6626C161.136 45.6626 161.057 45.6726 160.977 45.6924C160.918 45.6924 160.878 45.7123 160.858 45.7521L159.934 45.9905L158.056 46.5866L154.301 47.6894C151.777 48.4245 149.204 49.0306 146.581 49.5075C146.144 49.5472 145.697 49.5969 145.24 49.6565C144.128 49.8353 142.995 49.9148 141.842 49.8949C140.71 49.8552 139.538 49.4975 138.326 48.8219C137.57 48.206 137.173 47.4609 137.133 46.5866C137.074 45.7123 137.183 44.9473 137.461 44.2916C137.958 42.9007 138.673 41.6788 139.607 40.6257C141.495 38.5791 143.671 36.9497 146.134 35.7377C147.346 35.1217 148.608 34.6051 149.92 34.1878C150.595 33.9891 151.31 33.8401 152.066 33.7408C152.125 33.7408 152.175 33.7408 152.215 33.7408C152.552 33.701 152.97 33.7507 153.466 33.8898C153.685 33.8898 153.903 34.009 154.122 34.2474C154.341 34.466 154.509 34.7343 154.629 35.0522C154.768 35.3502 154.788 35.6284 154.688 35.8867C154.41 36.6418 154.082 37.2379 153.705 37.675C153.347 38.0923 152.97 38.4598 152.572 38.7778C152.314 38.9963 152.056 39.2348 151.797 39.4931C150.744 40.4071 149.612 41.2019 148.4 41.8774C147.187 42.553 145.926 43.1292 144.614 43.6061C143.959 43.8247 143.273 44.0135 142.558 44.1724C142.558 44.1923 142.548 44.2022 142.528 44.2022C142.19 44.2817 141.833 44.3413 141.455 44.381C141.256 44.4009 141.048 44.4208 140.829 44.4407C140.809 44.4407 140.779 44.4407 140.74 44.4407C140.68 44.4407 140.611 44.4407 140.531 44.4407C140.452 44.4208 140.372 44.3711 140.293 44.2916C140.233 44.2122 140.183 44.0731 140.144 43.8744C140.084 43.5564 140.104 43.2485 140.203 42.9504V42.8908C139.726 43.5068 139.359 44.1625 139.1 44.8579C138.624 46.0501 138.703 46.9343 139.339 47.5105C140.213 48.047 141.286 48.3053 142.558 48.2855C143.849 48.2656 145.111 48.1563 146.343 47.9576C148.886 47.5602 151.41 47.0138 153.913 46.3183L159.546 44.7089L160.53 44.4407C160.61 44.4407 160.669 44.4407 160.709 44.4407C160.768 44.4208 160.818 44.4009 160.858 44.381C160.918 44.3612 160.987 44.3413 161.067 44.3214C161.146 44.3016 161.255 44.3016 161.394 44.3214C161.533 44.3214 161.742 44.3413 162.02 44.381ZM147.058 37.6154C145.091 38.589 143.323 39.811 141.753 41.2814C141.793 41.2615 141.833 41.2516 141.872 41.2516C141.912 41.2516 141.952 41.2516 141.992 41.2516C142.568 41.1522 143.154 41.023 143.75 40.8641C144.922 40.5263 146.065 40.0892 147.178 39.5527C148.29 39.0361 149.343 38.4102 150.337 37.675C150.655 37.4366 150.983 37.1584 151.32 36.8405C151.658 36.5225 151.936 36.2344 152.155 35.9761C151.638 36.0159 151.092 36.1152 150.516 36.2742C149.343 36.612 148.191 37.059 147.058 37.6154Z" fill="currentColor"/>
<path d="M198.084 43.6061C198.283 43.5664 198.461 43.6061 198.62 43.7253C198.779 43.8247 198.879 43.9638 198.918 44.1426C198.938 44.3413 198.889 44.5201 198.769 44.6791C198.67 44.838 198.531 44.9374 198.352 44.9771C197.696 45.0964 197.051 45.2255 196.415 45.3646C193.891 45.8812 191.358 46.3283 188.815 46.7058C186.291 47.0833 183.678 47.2622 180.976 47.2423C180.857 47.2224 180.708 47.2026 180.529 47.1827C180.191 47.2026 179.804 47.133 179.367 46.9741C178.929 46.7952 178.522 46.368 178.145 45.6924C178.025 45.0765 178.025 44.5797 178.145 44.2022C178.264 43.8048 178.413 43.4571 178.592 43.159C178.691 43.02 178.77 42.8709 178.83 42.712C179.466 41.7582 180.122 40.874 180.797 40.0594C181.056 39.7613 181.294 39.4633 181.513 39.1652L181.572 39.1056C181.552 39.1056 181.522 39.1056 181.483 39.1056C181.463 39.1056 181.443 39.1056 181.423 39.1056C180.151 39.2646 178.86 39.5924 177.549 40.0892C174.965 41.1025 172.432 42.3046 169.948 43.6955C167.465 45.0864 165.011 46.5469 162.587 48.0768L160.739 49.2094L160.232 49.5075L159.904 49.6863C159.924 49.6863 159.914 49.6962 159.874 49.7161C159.835 49.736 159.775 49.7658 159.696 49.8055C159.596 49.8254 159.497 49.8452 159.397 49.8651C159.278 49.885 159.169 49.8949 159.07 49.8949C159.07 49.875 159.07 49.8651 159.07 49.8651C159.05 49.8651 159.03 49.875 159.01 49.8949C158.99 49.8949 158.96 49.8949 158.921 49.8949C158.881 49.8949 158.821 49.885 158.742 49.8651C158.662 49.8254 158.563 49.7757 158.444 49.7161C158.324 49.6366 158.175 49.5174 157.997 49.3584C157.838 49.1399 157.738 48.9412 157.699 48.7623C157.639 48.5636 157.619 48.3848 157.639 48.2258C157.639 48.0669 157.669 47.9278 157.728 47.8086C157.768 47.6894 157.818 47.5999 157.877 47.5403C157.917 47.4609 157.947 47.4112 157.967 47.3913C157.987 47.3714 157.977 47.3814 157.937 47.4211L157.997 47.3615L165.209 37.8538C165.388 37.6949 165.537 37.5061 165.656 37.2875C165.756 37.069 165.895 36.8802 166.074 36.7212C166.272 36.5623 166.57 36.4828 166.968 36.4828C167.842 36.5821 168.398 37.0491 168.637 37.8836V37.9432C168.736 38.3406 168.726 38.6486 168.607 38.8672C168.488 39.0857 168.339 39.2745 168.16 39.4335C168.001 39.5924 167.862 39.7812 167.743 39.9998L166.402 41.6688L165.15 43.2187C168.786 41.0529 172.631 39.195 176.684 37.6452C178.095 37.1286 179.605 36.7808 181.214 36.602C181.612 36.5623 182.029 36.5623 182.466 36.602C182.685 36.602 182.913 36.6318 183.152 36.6914C183.172 36.7113 183.192 36.7212 183.211 36.7212C183.251 36.7212 183.291 36.7212 183.331 36.7212C183.37 36.7212 183.43 36.7312 183.509 36.751C183.609 36.7709 183.728 36.8305 183.867 36.9299C184.006 37.0093 184.185 37.1484 184.404 37.3471C184.622 37.7644 184.722 38.1022 184.702 38.3605C184.682 38.5989 184.632 38.7877 184.553 38.9268C184.533 38.9864 184.513 39.046 184.493 39.1056C184.374 39.3639 184.245 39.5726 184.106 39.7315L183.39 40.6853C183.092 41.0628 182.764 41.4502 182.407 41.8476C181.87 42.4835 181.383 43.0895 180.946 43.6657C180.529 44.2221 180.3 44.6493 180.261 44.9473C180.241 45.2255 180.549 45.2752 181.185 45.0964C183.728 45.2156 186.331 45.1361 188.994 44.8579C191.656 44.5599 194.309 44.1923 196.951 43.7551C197.329 43.6955 197.706 43.6459 198.084 43.6061ZM160.351 49.2392L160.321 49.269C160.282 49.3088 160.272 49.3286 160.292 49.3286C160.292 49.3088 160.311 49.2789 160.351 49.2392Z" fill="currentColor"/>
<path d="M243.119 0.419128C243.397 0.915873 243.546 1.2934 243.566 1.55171C243.586 1.81001 243.556 2.01865 243.476 2.1776C243.437 2.31669 243.417 2.46572 243.417 2.62468C243.218 3.51882 242.97 4.34341 242.672 5.09846C242.652 5.15807 242.632 5.20775 242.612 5.24749C241.996 6.87681 241.331 8.47633 240.615 10.046C237.794 16.3646 234.376 22.3852 230.362 28.1077C226.369 33.8103 221.59 38.8473 216.026 43.2187C216.006 43.2385 215.977 43.2584 215.937 43.2783C215.917 43.2981 215.897 43.3081 215.877 43.3081C215.738 43.626 215.589 43.934 215.43 44.232C215.232 44.5897 215.043 44.9573 214.864 45.3348C213.433 48.4345 212.221 51.5938 211.228 54.8127C210.731 56.442 210.403 58.0713 210.244 59.7007C210.165 60.5153 210.185 61.3002 210.304 62.0552C210.443 62.8301 210.771 63.4461 211.287 63.9031L211.317 63.9329C211.456 64.0521 211.526 64.2012 211.526 64.38C211.546 64.5588 211.506 64.7178 211.407 64.8569C211.268 64.996 211.109 65.0754 210.93 65.0953C210.771 65.1152 210.622 65.0655 210.483 64.9463C210.463 64.9463 210.453 64.9463 210.453 64.9463C209.658 64.1714 209.181 63.307 209.022 62.3533C208.863 61.3995 208.814 60.4855 208.873 59.6112C209.032 57.823 209.36 56.0943 209.857 54.4252C210.811 51.2063 211.973 48.0768 213.344 45.0367C211.317 46.4276 209.151 47.5999 206.847 48.5537C205.177 49.2491 203.369 49.6763 201.422 49.8353C200.905 49.8353 200.369 49.7956 199.813 49.7161C199.276 49.6366 198.71 49.418 198.114 49.0604C197.458 48.663 197.021 48.0768 196.802 47.3019C196.564 46.527 196.544 45.8613 196.743 45.305C197.259 43.318 198.173 41.6191 199.485 40.2084C200.816 38.7778 202.316 37.6353 203.985 36.7808C205.634 35.9066 207.393 35.3005 209.261 34.9628C210.195 34.8038 211.178 34.7541 212.211 34.8137C212.728 34.8336 213.274 34.9628 213.851 35.2012C214.427 35.4396 214.884 35.9264 215.222 36.6616C215.281 36.8603 215.271 37.0491 215.192 37.2279C215.132 37.3869 215.003 37.5061 214.804 37.5856C214.784 37.5856 214.765 37.5955 214.745 37.6154L213.582 37.9432C213.304 38.0227 213.036 38.0525 212.778 38.0326C212.539 38.0128 212.261 37.9631 211.943 37.8836C211.248 37.824 210.522 37.8637 209.767 38.0028C208.237 38.2611 206.767 38.738 205.356 39.4335C203.946 40.1488 202.714 41.0628 201.661 42.1755C200.627 43.2882 199.922 44.5499 199.544 45.9607C199.505 46.1395 199.485 46.2687 199.485 46.3482C199.485 46.4276 199.495 46.4872 199.515 46.527C199.534 46.5667 199.574 46.6065 199.634 46.6462C199.654 46.6661 199.674 46.676 199.693 46.676C199.832 46.7754 200.051 46.8548 200.349 46.9144C200.647 46.974 200.975 47.0039 201.333 47.0039C202.823 46.9244 204.333 46.5767 205.863 45.9607C208.903 44.7486 211.754 43.1292 214.417 41.1025C214.675 40.884 214.924 40.6654 215.162 40.4468C215.361 40.2481 215.569 40.0594 215.788 39.8805C218.013 35.2906 220.388 30.7901 222.911 26.379C226.309 20.3982 229.975 14.5764 233.909 8.91346C234.207 8.51607 234.495 8.11867 234.774 7.72128C235.628 6.50922 236.512 5.31703 237.426 4.14471C238.34 2.9724 239.383 1.83982 240.556 0.74698C240.615 0.70724 240.675 0.667501 240.734 0.627761C240.854 0.508542 241.032 0.389324 241.271 0.270105C241.331 0.250235 241.4 0.22043 241.48 0.180691C241.619 0.081342 241.817 0.0217326 242.076 0.00186279C242.354 -0.018007 242.702 0.121082 243.119 0.419128ZM240.585 4.47257C240.665 4.27387 240.725 4.08511 240.764 3.90628C240.804 3.76719 240.854 3.61816 240.913 3.45921C239.006 5.5058 237.217 7.71134 235.548 10.0758C231.594 15.6394 227.889 21.3718 224.431 27.2732C222.544 30.4722 220.736 33.7209 219.007 37.0193C223.16 33.1248 226.855 28.8031 230.094 24.0542C233.333 19.3054 236.154 14.328 238.559 9.1221C239.294 7.57225 239.969 6.02241 240.585 4.47257Z" fill="currentColor"/>
<path d="M288.541 0.419128C288.819 0.915873 288.968 1.2934 288.988 1.55171C289.008 1.81001 288.978 2.01865 288.899 2.1776C288.859 2.31669 288.839 2.46572 288.839 2.62468C288.641 3.51882 288.392 4.34341 288.094 5.09846C288.074 5.15807 288.054 5.20775 288.034 5.24749C287.419 6.87681 286.753 8.47633 286.038 10.046C283.216 16.3646 279.798 22.3852 275.785 28.1077C271.791 33.8103 267.012 38.8473 261.449 43.2187C261.429 43.2385 261.399 43.2584 261.359 43.2783C261.339 43.2981 261.32 43.3081 261.3 43.3081C261.161 43.626 261.012 43.934 260.853 44.232C260.654 44.5897 260.465 44.9573 260.286 45.3348C258.856 48.4345 257.644 51.5938 256.65 54.8127C256.153 56.442 255.826 58.0713 255.667 59.7007C255.587 60.5153 255.607 61.3002 255.726 62.0552C255.865 62.8301 256.193 63.4461 256.71 63.9031L256.74 63.9329C256.879 64.0521 256.948 64.2012 256.948 64.38C256.968 64.5588 256.928 64.7178 256.829 64.8569C256.69 64.996 256.531 65.0754 256.352 65.0953C256.193 65.1152 256.044 65.0655 255.905 64.9463C255.885 64.9463 255.875 64.9463 255.875 64.9463C255.08 64.1714 254.604 63.307 254.445 62.3533C254.286 61.3995 254.236 60.4855 254.296 59.6112C254.455 57.823 254.782 56.0943 255.279 54.4252C256.233 51.2063 257.395 48.0768 258.766 45.0367C256.74 46.4276 254.574 47.5999 252.269 48.5537C250.6 49.2491 248.792 49.6763 246.844 49.8353C246.328 49.8353 245.791 49.7956 245.235 49.7161C244.698 49.6366 244.132 49.418 243.536 49.0604C242.88 48.663 242.443 48.0768 242.225 47.3019C241.986 46.527 241.966 45.8613 242.165 45.305C242.682 43.318 243.596 41.6191 244.907 40.2084C246.238 38.7778 247.739 37.6353 249.408 36.7808C251.057 35.9066 252.815 35.3005 254.683 34.9628C255.617 34.8038 256.6 34.7541 257.634 34.8137C258.15 34.8336 258.697 34.9628 259.273 35.2012C259.849 35.4396 260.306 35.9264 260.644 36.6616C260.704 36.8603 260.694 37.0491 260.614 37.2279C260.555 37.3869 260.425 37.5061 260.227 37.5856C260.207 37.5856 260.187 37.5955 260.167 37.6154L259.005 37.9432C258.727 38.0227 258.458 38.0525 258.2 38.0326C257.962 38.0128 257.683 37.9631 257.365 37.8836C256.67 37.824 255.945 37.8637 255.19 38.0028C253.66 38.2611 252.189 38.738 250.779 39.4335C249.368 40.1488 248.136 41.0628 247.083 42.1755C246.05 43.2882 245.344 44.5499 244.967 45.9607C244.927 46.1395 244.907 46.2687 244.907 46.3482C244.907 46.4276 244.917 46.4872 244.937 46.527C244.957 46.5667 244.997 46.6065 245.056 46.6462C245.076 46.6661 245.096 46.676 245.116 46.676C245.255 46.7754 245.473 46.8548 245.771 46.9144C246.07 46.974 246.397 47.0039 246.755 47.0039C248.245 46.9244 249.755 46.5767 251.285 45.9607C254.325 44.7486 257.177 43.1292 259.839 41.1025C260.098 40.884 260.346 40.6654 260.584 40.4468C260.783 40.2481 260.992 40.0594 261.21 39.8805C263.436 35.2906 265.81 30.7901 268.334 26.379C271.731 20.3982 275.397 14.5764 279.332 8.91346C279.63 8.51607 279.918 8.11867 280.196 7.72128C281.05 6.50922 281.934 5.31703 282.848 4.14471C283.762 2.9724 284.806 1.83982 285.978 0.74698C286.038 0.70724 286.097 0.667501 286.157 0.627761C286.276 0.508542 286.455 0.389324 286.693 0.270105C286.753 0.250235 286.822 0.22043 286.902 0.180691C287.041 0.081342 287.24 0.0217326 287.498 0.00186279C287.776 -0.018007 288.124 0.121082 288.541 0.419128ZM286.008 4.47257C286.087 4.27387 286.147 4.08511 286.187 3.90628C286.226 3.76719 286.276 3.61816 286.336 3.45921C284.428 5.5058 282.64 7.71134 280.971 10.0758C277.017 15.6394 273.311 21.3718 269.854 27.2732C267.966 30.4722 266.158 33.7209 264.429 37.0193C268.582 33.1248 272.278 28.8031 275.517 24.0542C278.755 19.3054 281.577 14.328 283.981 9.1221C284.716 7.57225 285.392 6.02241 286.008 4.47257Z" fill="currentColor"/>
<path d="M297.93 44.381C298.069 44.5003 298.158 44.6493 298.198 44.8281C298.238 44.9871 298.208 45.146 298.108 45.305C297.989 45.4441 297.84 45.5335 297.661 45.5732C297.502 45.613 297.343 45.5832 297.185 45.4838C297.304 45.5236 297.363 45.5534 297.363 45.5732C297.383 45.5931 297.363 45.613 297.304 45.6328C297.264 45.6328 297.204 45.6428 297.125 45.6626C297.045 45.6626 296.966 45.6726 296.887 45.6924C296.827 45.6924 296.787 45.7123 296.767 45.7521L295.843 45.9905L293.966 46.5866L290.21 47.6894C287.687 48.4245 285.114 49.0306 282.491 49.5075C282.054 49.5472 281.607 49.5969 281.15 49.6565C280.037 49.8353 278.904 49.9148 277.752 49.8949C276.619 49.8552 275.447 49.4975 274.235 48.8219C273.48 48.206 273.082 47.4609 273.043 46.5866C272.983 45.7123 273.092 44.9473 273.371 44.2916C273.867 42.9007 274.583 41.6788 275.517 40.6257C277.404 38.5791 279.58 36.9497 282.044 35.7377C283.256 35.1217 284.518 34.6051 285.829 34.1878C286.505 33.9891 287.22 33.8401 287.975 33.7408C288.034 33.7408 288.084 33.7408 288.124 33.7408C288.462 33.701 288.879 33.7507 289.376 33.8898C289.594 33.8898 289.813 34.009 290.031 34.2474C290.25 34.466 290.419 34.7343 290.538 35.0522C290.677 35.3502 290.697 35.6284 290.598 35.8867C290.32 36.6418 289.992 37.2379 289.614 37.675C289.256 38.0923 288.879 38.4598 288.482 38.7778C288.223 38.9963 287.965 39.2348 287.707 39.4931C286.654 40.4071 285.521 41.2019 284.309 41.8774C283.097 42.553 281.835 43.1292 280.524 43.6061C279.868 43.8247 279.183 44.0135 278.467 44.1724C278.467 44.1923 278.457 44.2022 278.437 44.2022C278.1 44.2817 277.742 44.3413 277.364 44.381C277.166 44.4009 276.957 44.4208 276.739 44.4407C276.719 44.4407 276.689 44.4407 276.649 44.4407C276.589 44.4407 276.52 44.4407 276.44 44.4407C276.361 44.4208 276.282 44.3711 276.202 44.2916C276.142 44.2122 276.093 44.0731 276.053 43.8744C275.993 43.5564 276.013 43.2485 276.113 42.9504V42.8908C275.636 43.5068 275.268 44.1625 275.01 44.8579C274.533 46.0501 274.612 46.9343 275.248 47.5105C276.123 48.047 277.196 48.3053 278.467 48.2855C279.759 48.2656 281.02 48.1563 282.252 47.9576C284.796 47.5602 287.319 47.0138 289.823 46.3183L295.456 44.7089L296.439 44.4407C296.519 44.4407 296.579 44.4407 296.618 44.4407C296.678 44.4208 296.728 44.4009 296.767 44.381C296.827 44.3612 296.896 44.3413 296.976 44.3214C297.055 44.3016 297.165 44.3016 297.304 44.3214C297.443 44.3214 297.651 44.3413 297.93 44.381ZM282.968 37.6154C281.001 38.589 279.232 39.811 277.662 41.2814C277.702 41.2615 277.742 41.2516 277.782 41.2516C277.821 41.2516 277.861 41.2516 277.901 41.2516C278.477 41.1522 279.063 41.023 279.659 40.8641C280.832 40.5263 281.974 40.0892 283.087 39.5527C284.2 39.0361 285.253 38.4102 286.246 37.675C286.564 37.4366 286.892 37.1584 287.23 36.8405C287.568 36.5225 287.846 36.2344 288.064 35.9761C287.548 36.0159 287.001 36.1152 286.425 36.2742C285.253 36.612 284.1 37.059 282.968 37.6154Z" fill="currentColor"/>
<path d="M326.065 37.5558C326.224 37.5359 326.353 37.5558 326.453 37.6154C326.552 37.675 326.592 37.7743 326.572 37.9134C326.552 38.0525 326.492 38.1817 326.393 38.3009C326.294 38.4002 326.165 38.4797 326.006 38.5393C324.575 38.9367 323.134 39.2844 321.684 39.5825C320.969 39.7414 320.243 39.8607 319.508 39.9401C319.131 39.9799 318.763 39.9998 318.405 39.9998C318.405 39.9998 318.396 39.9998 318.376 39.9998C317.462 40.7548 316.538 41.4999 315.604 42.2351C313.12 44.1823 310.567 46.06 307.944 47.8682C306.633 48.7822 305.262 49.6465 303.831 50.4612C303.116 50.8586 302.361 51.2361 301.566 51.5938C301.168 51.7527 300.761 51.9018 300.344 52.0408C299.907 52.1799 299.44 52.2694 298.943 52.3091C298.705 52.329 298.456 52.319 298.198 52.2793C297.959 52.2395 297.731 52.17 297.512 52.0707C297.075 51.872 296.767 51.5838 296.588 51.2063C296.41 50.8487 296.31 50.491 296.29 50.1333C296.251 49.7757 296.251 49.418 296.29 49.0604C296.37 48.3649 296.499 47.6894 296.678 47.0337C296.837 46.3581 297.026 45.6925 297.244 45.0367C297.681 43.7452 298.158 42.4537 298.675 41.1621L299.42 39.2546L299.778 38.3009C299.837 38.1419 299.927 37.9929 300.046 37.8538C300.165 37.6949 300.344 37.5359 300.582 37.3769C300.92 37.1782 301.238 37.0888 301.536 37.1087C301.854 37.1087 302.092 37.208 302.251 37.4067C302.371 37.5657 302.42 37.7247 302.4 37.8836C302.4 38.0624 302.361 38.2214 302.281 38.3605L301.894 39.3142L301.149 41.2217C300.632 42.4735 300.155 43.7154 299.718 44.9473C299.519 45.5633 299.33 46.1693 299.152 46.7654C298.993 47.3814 298.883 47.9576 298.824 48.4941C298.804 48.7524 298.804 48.9908 298.824 49.2094C298.844 49.4478 298.883 49.6267 298.943 49.7459C299.003 49.885 299.082 49.9744 299.181 50.0141C299.281 50.0539 299.43 50.0737 299.629 50.0737C300.046 50.034 300.582 49.885 301.238 49.6267C301.854 49.3684 302.48 49.0604 303.116 48.7027C304.407 47.9874 305.689 47.2026 306.96 46.3482C309.504 44.6195 312.017 42.8113 314.501 40.9237C315.117 40.4468 315.743 39.96 316.379 39.4633C316.319 39.4235 316.279 39.3739 316.26 39.3142C316.12 39.0957 316.071 38.8473 316.111 38.5691C316.15 38.3108 316.23 38.0724 316.349 37.8538C316.587 37.4167 316.856 37.0392 317.154 36.7212C317.452 36.4033 317.76 36.1053 318.078 35.8271C318.713 35.2707 319.359 34.7541 320.015 34.2773C320.69 33.8004 321.376 33.3434 322.071 32.9062C322.767 32.489 323.492 32.1015 324.247 31.7439C324.446 31.6445 324.655 31.5551 324.873 31.4756C325.072 31.3763 325.31 31.2968 325.588 31.2372C325.708 31.1974 325.877 31.1776 326.095 31.1776C326.194 31.1776 326.324 31.1974 326.483 31.2372C326.642 31.2769 326.771 31.3862 326.87 31.565C326.949 31.7439 326.969 31.9028 326.93 32.0419C326.91 32.181 326.88 32.3002 326.84 32.3996C326.741 32.5784 326.651 32.7274 326.572 32.8466C326.413 33.0652 326.254 33.254 326.095 33.4129C325.956 33.5719 325.807 33.7308 325.648 33.8898C325.35 34.1878 325.052 34.476 324.754 34.7541C324.456 35.0124 324.148 35.2707 323.83 35.529L322.936 36.304C321.982 37.0988 321.018 37.8836 320.045 38.6585C320.641 38.5989 321.247 38.5195 321.863 38.4201C323.234 38.2015 324.635 37.9134 326.065 37.5558ZM317.66 38.3605C317.68 38.3804 317.7 38.4002 317.72 38.4201C319.091 37.3471 320.462 36.2543 321.833 35.1416L322.727 34.4263C323.025 34.1878 323.313 33.9395 323.591 33.6812C323.591 33.6812 323.601 33.6812 323.621 33.6812C323.303 33.8401 322.995 34.009 322.697 34.1878C322.042 34.5654 321.406 34.9628 320.79 35.38C320.174 35.7973 319.588 36.2344 319.031 36.6914C318.753 36.9299 318.495 37.1683 318.256 37.4067C318.038 37.6452 317.869 37.8638 317.75 38.0625C317.69 38.1419 317.66 38.2115 317.66 38.2711C317.66 38.291 317.66 38.3108 317.66 38.3307C317.66 38.3506 317.66 38.3605 317.66 38.3605Z" fill="currentColor"/>
<path d="M350.684 44.381C350.823 44.5003 350.912 44.6493 350.952 44.8281C350.992 44.9871 350.962 45.146 350.863 45.305C350.744 45.4441 350.595 45.5335 350.416 45.5732C350.257 45.613 350.098 45.5832 349.939 45.4838C350.058 45.5236 350.118 45.5534 350.118 45.5732C350.138 45.5931 350.118 45.613 350.058 45.6328C350.018 45.6328 349.959 45.6428 349.879 45.6626C349.8 45.6626 349.72 45.6726 349.641 45.6924C349.581 45.6924 349.541 45.7123 349.522 45.7521L348.598 45.9905L346.72 46.5866L342.965 47.6894C340.441 48.4245 337.868 49.0306 335.245 49.5075C334.808 49.5472 334.361 49.5969 333.904 49.6565C332.791 49.8353 331.659 49.9148 330.506 49.8949C329.374 49.8552 328.201 49.4975 326.989 48.8219C326.234 48.206 325.837 47.4609 325.797 46.5866C325.737 45.7123 325.847 44.9473 326.125 44.2916C326.622 42.9007 327.337 41.6788 328.271 40.6257C330.158 38.5791 332.334 36.9497 334.798 35.7377C336.01 35.1217 337.272 34.6051 338.583 34.1878C339.259 33.9891 339.974 33.8401 340.729 33.7408C340.789 33.7408 340.838 33.7408 340.878 33.7408C341.216 33.701 341.633 33.7507 342.13 33.8898C342.349 33.8898 342.567 34.009 342.786 34.2474C343.004 34.466 343.173 34.7343 343.292 35.0522C343.431 35.3502 343.451 35.6284 343.352 35.8867C343.074 36.6418 342.746 37.2379 342.368 37.675C342.011 38.0923 341.633 38.4598 341.236 38.7778C340.978 38.9963 340.719 39.2348 340.461 39.4931C339.408 40.4071 338.275 41.2019 337.063 41.8774C335.851 42.553 334.589 43.1292 333.278 43.6061C332.622 43.8247 331.937 44.0135 331.221 44.1724C331.221 44.1923 331.212 44.2022 331.192 44.2022C330.854 44.2817 330.496 44.3413 330.119 44.381C329.92 44.4009 329.711 44.4208 329.493 44.4407C329.473 44.4407 329.443 44.4407 329.403 44.4407C329.344 44.4407 329.274 44.4407 329.195 44.4407C329.115 44.4208 329.036 44.3711 328.956 44.2916C328.897 44.2122 328.847 44.0731 328.807 43.8744C328.748 43.5564 328.768 43.2485 328.867 42.9504V42.8908C328.39 43.5068 328.022 44.1625 327.764 44.8579C327.287 46.0501 327.367 46.9343 328.003 47.5105C328.877 48.047 329.95 48.3053 331.221 48.2855C332.513 48.2656 333.775 48.1563 335.007 47.9576C337.55 47.5602 340.073 47.0138 342.577 46.3183L348.21 44.7089L349.194 44.4407C349.273 44.4407 349.333 44.4407 349.373 44.4407C349.432 44.4208 349.482 44.4009 349.522 44.381C349.581 44.3612 349.651 44.3413 349.73 44.3214C349.81 44.3016 349.919 44.3016 350.058 44.3214C350.197 44.3214 350.406 44.3413 350.684 44.381ZM335.722 37.6154C333.755 38.589 331.986 39.811 330.417 41.2814C330.457 41.2615 330.496 41.2516 330.536 41.2516C330.576 41.2516 330.615 41.2516 330.655 41.2516C331.231 41.1522 331.818 41.023 332.414 40.8641C333.586 40.5263 334.729 40.0892 335.841 39.5527C336.954 39.0361 338.007 38.4102 339.001 37.675C339.318 37.4366 339.646 37.1584 339.984 36.8405C340.322 36.5225 340.6 36.2344 340.819 35.9761C340.302 36.0159 339.756 36.1152 339.179 36.2742C338.007 36.612 336.855 37.059 335.722 37.6154Z" fill="currentColor"/>
<path d="M385.973 4.56198C386.012 4.89977 386.022 5.1382 386.003 5.27729C386.003 5.41638 385.983 5.52566 385.943 5.60514C385.903 5.68462 385.873 5.77404 385.853 5.87339C385.695 6.29065 385.536 6.63837 385.377 6.91655C385.337 6.97616 385.297 7.03577 385.257 7.09538C383.866 9.14197 382.406 11.0693 380.876 12.8775C379.346 14.6856 377.796 16.4541 376.227 18.1827C375.531 18.9576 374.836 19.7326 374.14 20.5075L362.397 33.0851L356.496 39.3142L353.545 42.4139C353.426 42.553 353.307 42.6822 353.188 42.8014C352.432 43.6955 351.538 44.4307 350.505 45.0069C350.028 46.3183 349.879 47.5105 350.058 48.5835C350.296 49.4578 351.071 49.9545 352.383 50.0737C352.899 50.1333 353.476 50.0737 354.111 49.8949C354.747 49.7161 355.373 49.4975 355.989 49.2392C358.533 48.1464 361.006 46.8449 363.411 45.3348C365.835 43.8247 368.199 42.245 370.504 40.5958C370.643 40.4766 370.802 40.427 370.981 40.4468C371.16 40.4667 371.309 40.5462 371.428 40.6853C371.527 40.8442 371.567 41.0131 371.547 41.1919C371.527 41.3509 371.448 41.49 371.309 41.6092C369.044 43.4174 366.729 45.146 364.364 46.7952C362 48.4444 359.476 49.9048 356.794 51.1765C356.635 51.2361 356.476 51.3057 356.317 51.3851C355.701 51.6435 355.055 51.862 354.38 52.0408C353.724 52.2395 352.979 52.319 352.144 52.2793C351.33 52.2395 350.485 51.9614 349.611 51.4448C348.757 50.948 348.19 50.193 347.912 49.1796C347.654 47.6099 347.733 46.1892 348.151 44.9175C348.548 43.6459 349.055 42.4437 349.671 41.3112C349.849 40.9535 350.018 40.5859 350.177 40.2084C353.138 35.1615 356.476 30.4324 360.192 26.0214C363.907 21.6103 367.782 17.3482 371.815 13.2351C373.842 11.1886 375.948 9.20158 378.134 7.27421C379.207 6.30059 380.359 5.37664 381.591 4.50237C381.79 4.38315 381.969 4.26393 382.128 4.14471C382.346 3.98576 382.605 3.83673 382.903 3.69764C383.201 3.53869 383.628 3.40953 384.184 3.31018C384.363 3.27044 384.592 3.30025 384.87 3.3996C385.148 3.49895 385.396 3.6579 385.615 3.87647C385.853 4.07517 385.973 4.30367 385.973 4.56198ZM372.024 18.5702C372.541 18.0138 373.057 17.4475 373.574 16.8713C376.097 14.169 378.482 11.4171 380.727 8.61542C380.608 8.71477 380.479 8.81412 380.34 8.91346C380.181 9.03268 380.022 9.16184 379.863 9.30093C377.737 11.1488 375.67 13.0762 373.663 15.083C370.544 18.2225 367.504 21.4513 364.543 24.7696C361.583 28.0878 358.821 31.5452 356.257 35.1416L360.251 31.0285L372.024 18.5702Z" fill="currentColor"/>
<path d="M383.767 37.675C384.006 38.9467 383.926 40.0792 383.529 41.0727C383.131 42.0662 382.654 42.9604 382.098 43.7551C380.946 45.3646 379.555 46.7455 377.925 47.898C377.111 48.4543 376.217 48.9412 375.243 49.3584C374.269 49.7558 373.196 49.9346 372.024 49.8949C370.852 49.8949 369.719 49.4578 368.626 48.5835C367.613 47.5701 367.116 46.4078 367.136 45.0964C367.176 43.8843 367.444 42.7915 367.941 41.8178C368.457 40.8244 369.093 39.97 369.848 39.2546C370.584 38.5195 371.388 37.8836 372.263 37.3471C372.461 37.2279 372.66 37.1087 372.859 36.9895C373.177 36.7709 373.514 36.602 373.872 36.4828C374.25 36.3437 374.667 36.3437 375.124 36.4828C375.481 36.602 375.74 36.8206 375.899 37.1385C376.058 37.4564 376.078 37.7942 375.958 38.1519C375.958 38.1916 375.948 38.2214 375.928 38.2413L375.869 38.4201C375.71 38.7778 375.511 39.0361 375.273 39.195C375.054 39.354 374.826 39.4831 374.587 39.5825C374.329 39.662 374.091 39.7911 373.872 39.9699C373.177 40.3872 372.551 40.8641 371.994 41.4006C370.822 42.5332 370.186 43.7551 370.087 45.0666C370.047 45.8812 370.365 46.4376 371.041 46.7356C371.736 47.0337 372.58 47.0933 373.574 46.9144C374.567 46.7356 375.511 46.3084 376.405 45.6328C377.458 44.9573 378.432 44.1128 379.326 43.0994C380.22 42.0861 380.856 41.0429 381.234 39.9699L380.638 39.6123L379.475 38.7778C379.277 38.5989 379.078 38.44 378.879 38.3009C378.601 38.1022 378.323 37.8638 378.045 37.5856C377.786 37.2875 377.538 36.8107 377.3 36.1549C377.26 35.8569 377.3 35.5986 377.419 35.38C377.558 35.1615 377.727 34.9926 377.925 34.8733C378.124 34.7343 378.303 34.6448 378.462 34.6051C378.641 34.5654 378.75 34.5654 378.79 34.6051C378.949 34.5852 379.068 34.5852 379.147 34.6051C379.247 34.6051 379.336 34.615 379.416 34.6349C379.495 34.6349 379.585 34.6448 379.684 34.6647C380.181 34.7243 380.697 34.8535 381.234 35.0522C381.79 35.231 382.307 35.5489 382.784 36.0059C383.26 36.4629 383.588 37.0193 383.767 37.675ZM380.399 37.1683C380.419 37.208 380.449 37.2379 380.489 37.2577C380.548 37.3372 380.608 37.4067 380.667 37.4664L381.472 38.2711C381.373 37.7942 381.015 37.4266 380.399 37.1683Z" fill="currentColor"/>
<path d="M409.071 35.9463C409.528 36.1649 409.985 36.4927 410.442 36.9299C410.919 37.3471 411.257 37.8936 411.456 38.5691C411.595 39.2447 411.585 39.8706 411.426 40.4468C411.267 41.023 411.058 41.5297 410.8 41.9669C409.667 43.7154 408.306 45.1262 406.717 46.1991C405.147 47.2721 403.468 48.1464 401.68 48.8219C399.891 49.5174 398.014 49.8552 396.047 49.8353C394.556 49.7757 393.195 49.2491 391.963 48.2557C389.4 51.3355 386.976 54.5544 384.691 57.9124L372.084 78.3882L371.905 78.6862C371.806 78.8452 371.726 78.9843 371.666 79.1035C371.627 79.183 371.577 79.2724 371.517 79.3717C371.458 79.4711 371.368 79.5903 371.249 79.7294L371.19 79.8784L371.16 79.8486C371.14 79.8685 371.12 79.8983 371.1 79.938C371.041 80.0175 370.961 80.1169 370.862 80.2361C370.603 80.5143 370.295 80.6633 369.938 80.6832C369.56 80.7229 369.213 80.6235 368.895 80.3851C368.636 80.1467 368.487 79.8586 368.448 79.5208C368.388 79.2029 368.448 78.8949 368.626 78.5968L368.746 78.3882L370.504 75.5269L371.547 73.7387L374.349 69.0295C374.865 68.1751 375.402 67.3207 375.958 66.4663C376.296 65.9497 376.624 65.4331 376.942 64.9165L383.618 53.9483L390.98 41.6986L394.646 35.5589C394.944 35.0621 395.242 34.5554 395.54 34.0388C396.394 32.3499 397.368 30.959 398.461 29.8662L398.938 29.4489C399.136 29.2899 399.355 29.2204 399.593 29.2403C399.852 29.2403 400.07 29.3396 400.249 29.5383C400.448 29.7966 400.527 30.0748 400.488 30.3728C400.249 31.4657 399.921 32.4294 399.504 33.2639C399.107 34.0786 398.67 34.8535 398.193 35.5887C397.895 36.0854 397.597 36.602 397.298 37.1385L394.705 41.4304C395.878 40.2779 397.12 39.205 398.431 38.2115C399.762 37.218 401.243 36.4033 402.872 35.7675C403.826 35.4098 404.849 35.2211 405.942 35.2012C407.035 35.1813 408.078 35.4297 409.071 35.9463ZM408.922 40.9535C409.518 40.0395 409.548 39.2844 409.012 38.6883C408.495 38.0724 407.72 37.6949 406.687 37.5558C405.654 37.3968 404.65 37.526 403.677 37.9432C402.147 38.5592 400.696 39.4235 399.325 40.5362C397.954 41.6291 396.653 42.8113 395.421 44.083C394.864 44.699 394.328 45.3348 393.811 45.9905C393.493 46.4078 393.166 46.8151 392.828 47.2125C393.98 47.9675 395.292 48.2954 396.762 48.196C398.252 48.0967 399.673 47.749 401.024 47.1529C402.634 46.4773 404.144 45.613 405.554 44.5599C406.965 43.5068 408.088 42.3046 408.922 40.9535Z" fill="currentColor"/>
<path d="M441.409 44.381C441.549 44.5003 441.638 44.6493 441.678 44.8281C441.717 44.9871 441.688 45.146 441.588 45.305C441.469 45.4441 441.32 45.5335 441.141 45.5732C440.982 45.613 440.823 45.5832 440.664 45.4838C440.784 45.5236 440.843 45.5534 440.843 45.5732C440.863 45.5931 440.843 45.613 440.784 45.6328C440.744 45.6328 440.684 45.6428 440.605 45.6626C440.525 45.6626 440.446 45.6726 440.366 45.6924C440.307 45.6924 440.267 45.7123 440.247 45.7521L439.323 45.9905L437.445 46.5866L433.69 47.6894C431.167 48.4245 428.593 49.0306 425.971 49.5075C425.533 49.5472 425.086 49.5969 424.629 49.6565C423.517 49.8353 422.384 49.9148 421.232 49.8949C420.099 49.8552 418.927 49.4975 417.715 48.8219C416.96 48.206 416.562 47.4609 416.523 46.5866C416.463 45.7123 416.572 44.9473 416.85 44.2916C417.347 42.9007 418.062 41.6788 418.996 40.6257C420.884 38.5791 423.06 36.9497 425.524 35.7377C426.736 35.1217 427.997 34.6051 429.309 34.1878C429.984 33.9891 430.7 33.8401 431.455 33.7408C431.514 33.7408 431.564 33.7408 431.604 33.7408C431.941 33.701 432.359 33.7507 432.855 33.8898C433.074 33.8898 433.293 34.009 433.511 34.2474C433.73 34.466 433.899 34.7343 434.018 35.0522C434.157 35.3502 434.177 35.6284 434.077 35.8867C433.799 36.6418 433.471 37.2379 433.094 37.675C432.736 38.0923 432.359 38.4598 431.961 38.7778C431.703 38.9963 431.445 39.2348 431.186 39.4931C430.133 40.4071 429.001 41.2019 427.789 41.8774C426.577 42.553 425.315 43.1292 424.003 43.6061C423.348 43.8247 422.662 44.0135 421.947 44.1724C421.947 44.1923 421.937 44.2022 421.917 44.2022C421.579 44.2817 421.222 44.3413 420.844 44.381C420.645 44.4009 420.437 44.4208 420.218 44.4407C420.198 44.4407 420.169 44.4407 420.129 44.4407C420.069 44.4407 420 44.4407 419.92 44.4407C419.841 44.4208 419.761 44.3711 419.682 44.2916C419.622 44.2122 419.573 44.0731 419.533 43.8744C419.473 43.5564 419.493 43.2485 419.592 42.9504V42.8908C419.116 43.5068 418.748 44.1625 418.49 44.8579C418.013 46.0501 418.092 46.9343 418.728 47.5105C419.602 48.047 420.675 48.3053 421.947 48.2855C423.238 48.2656 424.5 48.1563 425.732 47.9576C428.275 47.5602 430.799 47.0138 433.303 46.3183L438.936 44.7089L439.919 44.4407C439.999 44.4407 440.058 44.4407 440.098 44.4407C440.158 44.4208 440.207 44.4009 440.247 44.381C440.307 44.3612 440.376 44.3413 440.456 44.3214C440.535 44.3016 440.644 44.3016 440.784 44.3214C440.923 44.3214 441.131 44.3413 441.409 44.381ZM426.447 37.6154C424.48 38.589 422.712 39.811 421.142 41.2814C421.182 41.2615 421.222 41.2516 421.261 41.2516C421.301 41.2516 421.341 41.2516 421.381 41.2516C421.957 41.1522 422.543 41.023 423.139 40.8641C424.311 40.5263 425.454 40.0892 426.567 39.5527C427.679 39.0361 428.732 38.4102 429.726 37.675C430.044 37.4366 430.372 37.1584 430.71 36.8405C431.047 36.5225 431.325 36.2344 431.544 35.9761C431.027 36.0159 430.481 36.1152 429.905 36.2742C428.732 36.612 427.58 37.059 426.447 37.6154Z" fill="currentColor"/>
<path d="M459.501 35.7675C459.819 35.9861 460.057 36.2543 460.216 36.5722C460.375 36.8901 460.445 37.1683 460.425 37.4067C460.365 38.1022 460.226 38.6883 460.008 39.1652C459.789 39.6222 459.541 40.0494 459.262 40.4468C459.103 40.6654 458.954 40.8939 458.815 41.1323C458.656 41.3906 458.438 41.5595 458.16 41.639C457.881 41.7185 457.593 41.6887 457.295 41.5496C457.037 41.4105 456.858 41.2019 456.759 40.9237C456.679 40.6455 456.709 40.3773 456.848 40.119C456.868 40.0991 456.888 40.0792 456.908 40.0594L456.938 39.9998C457.216 39.5825 457.464 39.1553 457.683 38.7182C457.921 38.2611 458.06 37.9035 458.1 37.6452C458.1 37.6452 458.09 37.6452 458.07 37.6452C457.653 37.6651 457.176 37.7644 456.64 37.9432C454.533 38.738 452.487 39.7713 450.5 41.0429C448.533 42.2748 446.655 43.6161 444.867 45.0666C443.039 46.517 441.539 48.0868 440.366 49.7757C440.346 49.7956 440.327 49.8154 440.307 49.8353C440.307 49.8552 440.297 49.875 440.277 49.8949L440.158 50.0439C439.939 50.3022 439.661 50.4513 439.323 50.491C438.985 50.5307 438.667 50.4413 438.369 50.2228C438.111 50.0241 437.962 49.7757 437.922 49.4776C437.863 49.1796 437.922 48.8915 438.101 48.6133C438.101 48.6133 438.111 48.6034 438.131 48.5835C438.131 48.5835 438.131 48.5736 438.131 48.5537C439.283 46.4674 440.456 44.4009 441.648 42.3543L443.287 39.2248L444.002 37.6452L444.33 36.8703L444.479 36.4828C444.479 36.4629 444.489 36.4431 444.509 36.4232C444.509 36.3835 444.519 36.3536 444.539 36.3338C444.579 36.294 444.648 36.2742 444.748 36.2742C444.847 36.2543 445.006 36.2642 445.224 36.304L445.373 36.3338C446.168 36.453 446.893 36.7113 447.549 37.1087C447.728 37.208 447.847 37.2975 447.907 37.3769C447.986 37.4366 448.026 37.4962 448.026 37.5558C448.026 37.5955 448.006 37.6352 447.966 37.675C447.966 37.6949 447.957 37.7147 447.937 37.7346L447.758 38.1817L447.341 39.046L446.446 40.7151C446.387 40.8144 446.327 40.9138 446.268 41.0131C446.228 41.1125 446.178 41.2019 446.119 41.2814C446.456 41.0429 446.794 40.8045 447.132 40.566C447.808 40.0494 448.503 39.5726 449.218 39.1354C451.245 37.824 453.47 36.7312 455.895 35.8569C455.914 35.8569 455.934 35.8569 455.954 35.8569C456.55 35.6383 457.226 35.4992 457.981 35.4396C458.398 35.3999 458.905 35.5092 459.501 35.7675Z" fill="currentColor"/>
</svg>
