<svg class="w-17 lg:w-30" viewBox="0 0 120 120" fill="none" xmlns="http://www.w3.org/2000/svg">
<path d="M117.732 54.6524L65.3343 2.26399C64.6169 1.54624 63.7651 0.97687 62.8275 0.588406C61.89 0.199943 60.8851 0 59.8703 0C58.8555 0 57.8506 0.199943 56.9131 0.588406C55.9755 0.97687 55.1237 1.54624 54.4063 2.26399L43.5308 13.1392L57.3314 26.9394C58.959 26.3837 60.7101 26.2968 62.3847 26.6885C64.0594 27.0803 65.5901 27.9349 66.8024 29.1549C68.0146 30.3749 68.8594 31.9111 69.2403 33.5882C69.6213 35.2653 69.5231 37.0157 68.9569 38.6396L82.255 51.9449C84.2224 51.2522 86.3671 51.2501 88.3359 51.9389C90.3047 52.6278 91.9802 53.9665 93.0865 55.7347C94.1929 57.5029 94.6641 59.5951 94.4226 61.6668C94.1811 63.7386 93.2413 65.6663 91.7579 67.1326C90.2563 68.6435 88.2766 69.5861 86.1571 69.7995C84.0376 70.0129 81.9097 69.4838 80.137 68.3026C78.3643 67.1214 77.0567 65.3614 76.4375 63.3232C75.8184 61.285 75.9261 59.0951 76.7423 57.1275L64.3442 44.7222V77.3703C66.2288 78.3031 67.7366 79.8536 68.6165 81.7634C69.4965 83.6731 69.6952 85.8267 69.1798 87.8653C68.6643 89.9038 67.4657 91.7041 65.7837 92.9661C64.1018 94.2281 62.0381 94.8755 59.9367 94.8004C57.8353 94.7254 55.8231 93.9324 54.2355 92.5536C52.6479 91.1749 51.5808 89.2937 51.212 87.2236C50.8433 85.1535 51.1952 83.0195 52.2091 81.1774C53.223 79.3353 54.8377 77.8963 56.7839 77.1003V44.1522C55.661 43.6921 54.6403 43.0143 53.7806 42.1579C52.9209 41.3015 52.2393 40.2834 51.7749 39.1623C51.3106 38.0411 51.0727 36.8392 51.0751 35.6258C51.0774 34.4123 51.32 33.2113 51.7887 32.092L38.1906 18.4868L2.26405 54.4124C1.54628 55.1298 0.976895 55.9816 0.588422 56.9191C0.199948 57.8566 0 58.8615 0 59.8763C0 60.8911 0.199948 61.8959 0.588422 62.8334C0.976895 63.7709 1.54628 64.6227 2.26405 65.3401L54.6613 117.736C55.3787 118.454 56.2305 119.023 57.1681 119.412C58.1056 119.8 59.1105 120 60.1253 120C61.1401 120 62.145 119.8 63.0825 119.412C64.0201 119.023 64.8719 118.454 65.5893 117.736L117.739 65.5876C119.187 64.1378 120 62.1726 120 60.1238C120 58.0749 119.187 56.1097 117.739 54.6599" fill="url(#paint0_linear_2459_721)"/>
<defs>
<linearGradient id="paint0_linear_2459_721" x1="0" y1="60" x2="120" y2="60" gradientUnits="userSpaceOnUse">
<stop stop-color="#FF7262"/>
<stop offset="1" stop-color="#A259FF"/>
</linearGradient>
</defs>
</svg>
