<svg class="w-17 lg:w-30" viewBox="0 0 120 85" fill="none" xmlns="http://www.w3.org/2000/svg">
<path d="M51.2816 58.4294C51.2816 76.1504 40.8138 84.7894 25.6609 84.7894C11.9751 84.7894 4.03103 77.7027 0 69.149L13.9299 60.7171C16.6158 65.4836 18.6556 69.5148 24.5192 69.5148C29.3954 69.5148 33.4021 67.3163 33.4021 58.7628V1.53996H51.2816V58.4294ZM90.694 0C101.572 2.48749e-05 109.386 3.38068 115.014 13.2794L101.669 21.8573C98.7356 16.6033 95.5741 14.5431 90.6736 14.5431C85.6633 14.5431 82.4856 17.7207 82.4855 21.8573C82.4855 26.9895 85.6631 29.0665 92.9937 32.2442L97.2688 34.0766C111.812 40.3101 120 46.6736 120 60.961C120.004 76.3616 107.907 84.3827 91.6532 84.3828C75.7688 84.3828 65.504 77.2148 60.4937 67.316L74.444 59.242C78.1011 65.2316 82.8756 69.2222 91.3072 69.2223C98.394 69.2223 102.511 66.0848 102.511 61.1964C102.511 55.3329 98.2724 53.2562 90.4502 49.8185L86.175 47.9819C73.8302 42.7318 65.6464 36.1327 65.6463 22.199C65.6463 9.37045 75.4192 0 90.694 0Z" fill="url(#paint0_linear_2459_739)"/>
<defs>
<linearGradient id="paint0_linear_2459_739" x1="0" y1="42.3947" x2="120" y2="42.3947" gradientUnits="userSpaceOnUse">
<stop stop-color="#FF7262"/>
<stop offset="1" stop-color="#A259FF"/>
</linearGradient>
</defs>
</svg>
