<svg width="24" height="24" viewBox="0 0 24 24" fill="none" xmlns="http://www.w3.org/2000/svg">
<path d="M19.6851 5.08887C19.6614 5.01686 19.5992 4.96449 19.5223 4.95222L18.0642 4.74194L17.4121 3.42049C17.3441 3.28385 17.1191 3.28385 17.0529 3.42049L16.4007 4.74194L14.941 4.95222C14.8665 4.96449 14.8027 5.01604 14.7806 5.08887C14.7569 5.16332 14.7765 5.24106 14.8305 5.29506L15.8852 6.32359L15.6365 7.77513C15.6226 7.85123 15.6545 7.92732 15.7167 7.97151C15.7772 8.01733 15.8591 8.02142 15.927 7.98787L17.2304 7.3022L18.5363 7.98787C18.5641 8.00178 18.5969 8.00997 18.6288 8.00997C18.6705 8.00997 18.7131 7.99769 18.7474 7.97151C18.8096 7.92732 18.8399 7.85123 18.8276 7.77513L18.5789 6.32359L19.6336 5.29506C19.6892 5.24106 19.7096 5.16251 19.6851 5.08887Z" fill="currentColor"/>
<path d="M18.8407 12.1879C18.817 12.1159 18.7548 12.0619 18.6787 12.0513L17.5136 11.8811L16.9899 10.8239C16.9236 10.6873 16.6994 10.6873 16.6307 10.8239L16.1095 11.8811L14.9427 12.0513C14.8682 12.0611 14.8044 12.1151 14.7823 12.1879C14.7586 12.2599 14.7782 12.3401 14.8322 12.3925L15.6766 13.2164L15.4762 14.3775C15.4639 14.4536 15.4942 14.5297 15.5564 14.5739C15.5924 14.6001 15.6324 14.6123 15.675 14.6123C15.7069 14.6123 15.7388 14.6042 15.7691 14.5903L16.8115 14.0404L17.854 14.5903C17.9219 14.6246 18.0045 14.6181 18.0642 14.5739C18.1264 14.5297 18.1583 14.4536 18.1444 14.3775L17.9456 13.2164L18.79 12.3925C18.8448 12.3401 18.8653 12.2599 18.8407 12.1879Z" fill="currentColor"/>
<path d="M12.2932 8.07627C12.2695 8.00426 12.2073 7.9519 12.1312 7.93962L11.2786 7.81689L10.8973 7.04448C10.831 6.90619 10.6068 6.90619 10.5381 7.04448L10.1568 7.81689L9.30422 7.93962C9.22813 7.9519 9.16594 8.00345 9.1414 8.07627C9.1193 8.15073 9.13731 8.22846 9.19376 8.28246L9.80907 8.88386L9.66507 9.73237C9.65116 9.80683 9.68307 9.88293 9.74362 9.92875C9.77962 9.95248 9.81971 9.96721 9.86226 9.96721C9.89417 9.96721 9.92608 9.95902 9.95636 9.94348L10.7181 9.54254L11.4799 9.94348C11.5462 9.97948 11.628 9.97375 11.6902 9.92957C11.7524 9.88375 11.7826 9.80683 11.7704 9.73319L11.6239 8.88468L12.2417 8.28328C12.2973 8.22928 12.3178 8.15073 12.2932 8.07627Z" fill="currentColor"/>
<path d="M12.1147 22C16.5831 22 20.4991 19.1443 21.8631 14.8944C21.891 14.8126 21.8591 14.7202 21.787 14.6694C21.715 14.6195 21.6185 14.6212 21.5481 14.6752C19.9902 15.9001 18.1173 16.5505 16.1273 16.5505C11.2719 16.5505 7.32404 12.6017 7.32404 7.75041C7.32404 5.75883 7.97209 3.88175 9.19697 2.32395C9.25343 2.25603 9.25507 2.15948 9.20515 2.08748C9.15524 2.01302 9.06278 1.98356 8.97851 2.00893C4.72863 3.37373 1.87547 7.29232 1.87547 11.7621C1.87547 17.4071 6.46981 22 12.1147 22Z" fill="currentColor"/>
</svg>
