<svg class="w-17 lg:w-30" viewBox="0 0 120 105" fill="none" xmlns="http://www.w3.org/2000/svg">
<path d="M98.0156 34.0265C96.75 33.6046 95.4844 33.2062 94.2188 32.8313C94.4297 31.9641 94.6172 31.097 94.8047 30.2298C97.6875 16.2618 95.7891 5.03586 89.3906 1.33294C83.2266 -2.20594 73.1719 1.47355 63 10.3325C61.9922 11.1996 61.0078 12.1136 60.0703 13.0276C59.4375 12.4183 58.7812 11.8089 58.125 11.223C47.4609 1.75479 36.7734 -2.22937 30.375 1.49699C24.2344 5.0593 22.4062 15.629 24.9844 28.8471C25.2422 30.1595 25.5234 31.4485 25.8516 32.7609C24.3516 33.1828 22.875 33.6515 21.4922 34.1437C8.97656 38.4794 0 45.3228 0 52.4005C0 59.7126 9.5625 67.0482 22.5703 71.5011C23.625 71.8526 24.6797 72.2041 25.7578 72.5088C25.4063 73.915 25.1016 75.2977 24.8203 76.7273C22.3594 89.7345 24.2813 100.046 30.4219 103.585C36.75 107.241 47.3906 103.492 57.75 94.4217C58.5703 93.6952 59.3906 92.9452 60.2109 92.1484C61.2422 93.1562 62.3203 94.117 63.3984 95.0545C73.4297 103.679 83.3438 107.171 89.4609 103.632C95.7891 99.9761 97.8516 88.8908 95.1797 75.3915C94.9688 74.3603 94.7344 73.3057 94.4766 72.2276C95.2266 72.0167 95.9531 71.7823 96.6797 71.5479C110.203 67.0716 120 59.8298 120 52.4005C120 45.2993 110.766 38.4091 98.0156 34.0265ZM66.3047 14.1291C75.0234 6.53578 83.1563 3.55938 86.8594 5.69208C90.8203 7.96539 92.3437 17.1524 89.8594 29.2221C89.6953 30.0189 89.5313 30.7923 89.3203 31.5657C84.1172 30.3939 78.8437 29.5502 73.5469 29.0815C70.5 24.7223 67.1719 20.5507 63.5625 16.6368C64.4766 15.7697 65.3672 14.9494 66.3047 14.1291ZM39.1875 64.5639C40.3828 66.6029 41.6016 68.6418 42.8906 70.6339C39.2344 70.2355 35.6016 69.6496 32.0156 68.8762C33.0469 65.5014 34.3359 62.0094 35.8359 58.4471C36.9141 60.5095 38.0156 62.5484 39.1875 64.5639ZM32.0859 36.3701C35.4609 35.6202 39.0469 35.0108 42.7734 34.5421C41.5312 36.4873 40.3125 38.4794 39.1641 40.4949C38.0156 42.487 36.8906 44.5259 35.8359 46.5883C34.3594 43.0963 33.1172 39.6746 32.0859 36.3701ZM38.5078 52.5177C40.0547 49.2835 41.7422 46.1196 43.5234 43.0026C45.3047 39.8856 47.2266 36.8623 49.2422 33.8859C52.7578 33.6281 56.3437 33.4875 60 33.4875C63.6563 33.4875 67.2656 33.6281 70.7578 33.8859C72.75 36.8389 74.6484 39.8621 76.4531 42.9557C78.2578 46.0493 79.9453 49.2132 81.5391 52.424C79.9687 55.6582 78.2812 58.8455 76.4766 61.9859C74.6953 65.103 72.7969 68.1262 70.8047 71.1261C67.3125 71.3839 63.6797 71.5011 60 71.5011C56.3203 71.5011 52.7578 71.3839 49.3125 71.173C47.2734 68.1966 45.3516 65.1498 43.5469 62.0328C41.7422 58.9158 40.0781 55.7519 38.5078 52.5177ZM80.8359 64.5171C82.0312 62.4547 83.1563 60.3688 84.2578 58.2596C85.7578 61.6578 87.0703 65.103 88.2187 68.6418C84.5859 69.4621 80.9062 70.0949 77.2031 70.5167C78.4687 68.5481 79.6641 66.5326 80.8359 64.5171ZM84.2109 46.5883C83.1094 44.5259 81.9844 42.4635 80.8125 40.448C79.6641 38.456 78.4688 36.4873 77.2266 34.5421C81 35.0108 84.6094 35.6436 87.9844 36.417C86.9062 39.8856 85.6406 43.2604 84.2109 46.5883ZM60.0469 20.2226C62.5078 22.8943 64.8281 25.7066 66.9844 28.6127C62.3437 28.4018 57.6797 28.4018 53.0391 28.6127C55.3359 25.5895 57.7031 22.7771 60.0469 20.2226ZM32.8594 5.85613C36.7969 3.55938 45.5391 6.84045 54.75 14.9963C55.3359 15.5119 55.9219 16.0743 56.5312 16.6368C52.8984 20.5507 49.5469 24.7223 46.4766 29.0815C41.1797 29.5502 35.9297 30.3704 30.7266 31.5188C30.4219 30.3236 30.1641 29.1049 29.9062 27.8862C27.7031 16.5431 29.1562 7.98883 32.8594 5.85613ZM27.1172 67.6341C26.1328 67.3528 25.1719 67.0482 24.2109 66.7201C19.2188 65.1498 13.5469 62.6656 9.44531 59.408C7.07812 57.7674 5.48437 55.2363 5.03906 52.4005C5.03906 48.1117 12.4453 42.6276 23.1328 38.9012C24.4687 38.4325 25.8281 38.0107 27.1875 37.6122C28.7813 42.6979 30.7031 47.6898 32.9297 52.5177C30.6797 57.4159 28.7344 62.4781 27.1172 67.6341ZM54.4453 90.6016C50.5781 94.1405 46.1016 96.9528 41.2266 98.8746C38.625 100.117 35.625 100.234 32.9531 99.1793C29.2266 97.0231 27.6797 88.7501 29.7891 77.6179C30.0469 76.3055 30.3281 74.9931 30.6563 73.7041C35.9063 74.829 41.2031 75.6024 46.5703 76.0008C49.6641 80.3834 53.0625 84.5785 56.6953 88.5158C55.9453 89.2423 55.1953 89.9454 54.4453 90.6016ZM60.1875 84.9066C57.7969 82.3286 55.4062 79.4694 53.0859 76.3992C55.3359 76.493 57.6562 76.5399 60 76.5399C62.4141 76.5399 64.7812 76.493 67.125 76.3758C64.9687 79.3522 62.6484 82.188 60.1875 84.9066ZM90.8203 91.9375C90.6094 94.7967 89.2031 97.4684 86.9531 99.273C83.2266 101.429 75.2813 98.6168 66.7031 91.2578C65.7188 90.4141 64.7344 89.5001 63.7266 88.5627C67.3125 84.6019 70.6172 80.4068 73.6172 76.0008C78.9844 75.5555 84.3281 74.7353 89.6016 73.54C89.8359 74.5009 90.0469 75.4618 90.2344 76.3992C91.3828 81.4615 91.5703 86.7346 90.8203 91.9375ZM95.0859 66.7435C94.4297 66.9544 93.7734 67.1654 93.0938 67.3528C91.4531 62.2437 89.4375 57.2518 87.1172 52.4005C89.3672 47.6195 91.2656 42.6979 92.8594 37.6591C94.0781 38.0107 95.25 38.3856 96.375 38.7606C107.297 42.5104 114.961 48.0882 114.961 52.3536C114.961 56.9472 106.781 62.8765 95.0859 66.7435ZM60 63.2281C65.9297 63.2281 70.7344 58.4236 70.7344 52.4943C70.7344 46.5649 65.9297 41.7605 60 41.7605C54.0703 41.7605 49.2656 46.5649 49.2656 52.4943C49.2656 58.4236 54.0703 63.2281 60 63.2281Z" fill="url(#paint0_linear_2459_717)"/>
<defs>
<linearGradient id="paint0_linear_2459_717" x1="0" y1="52.5" x2="120" y2="52.5" gradientUnits="userSpaceOnUse">
<stop stop-color="#FF7262"/>
<stop offset="1" stop-color="#A259FF"/>
</linearGradient>
</defs>
</svg>
