<svg class="w-17 lg:w-30" viewBox="0 0 120 90" fill="none" xmlns="http://www.w3.org/2000/svg">
<path d="M56.595 68.0412C56.5387 68.1537 56.4825 68.2436 56.595 68.0412ZM103.307 51.73C99.5362 51.7288 95.8153 52.5948 92.4323 54.261C91.326 52.03 90.1822 50.0801 89.9947 48.6177C89.7697 46.9116 89.526 45.8992 89.7885 43.8744C90.051 41.8495 91.2323 38.981 91.2135 38.7748C91.1948 38.5686 90.951 37.5374 88.5322 37.5186C86.1135 37.4999 84.0322 37.9874 83.7903 38.6248C83.3631 39.7897 83.0308 40.9873 82.7965 42.2058C82.3653 44.3993 77.9609 52.2362 75.4671 56.3234C74.6421 54.7297 73.9483 53.3236 73.7983 52.1987C73.5733 50.4926 73.3296 49.4802 73.5921 47.4553C73.8546 45.4305 75.0358 42.562 75.0171 42.3558C74.9983 42.1495 74.7546 41.1184 72.3377 41.0996C69.9208 41.0809 67.8376 41.5683 67.5939 42.2058C67.3501 42.8432 67.0876 44.3431 66.6001 45.7867C66.1126 47.2304 60.2456 60.2793 58.71 63.6728C57.9225 65.3976 57.2475 66.785 56.76 67.7224C56.685 67.8724 56.6287 67.9662 56.5912 68.0412C56.6475 67.9474 56.685 67.8537 56.685 67.8912C56.2725 68.6974 56.0287 69.1473 56.0287 69.1473V69.1661C55.71 69.766 55.3537 70.3097 55.185 70.3097C55.0725 70.3097 54.8287 68.7348 55.2412 66.5788C56.1225 62.0416 58.2038 54.9922 58.185 54.7485C58.1663 54.6172 58.5788 53.3986 56.8162 52.7424C55.11 52.1237 54.4912 53.1549 54.3412 53.1549C54.1912 53.1549 54.0787 53.5298 54.0787 53.5298C54.0787 53.5298 55.9725 45.5805 50.443 45.5805C46.993 45.5805 42.1929 49.3677 39.8342 52.7986C38.3529 53.6048 35.1466 55.3484 31.7716 57.2045C30.4778 57.917 29.1465 58.6482 27.8903 59.3419C27.7965 59.2481 27.7215 59.1544 27.6278 59.0606C20.9171 51.8987 8.52693 46.8366 9.05194 37.2187C9.23944 33.7127 10.4582 24.5072 32.8778 13.3331C51.2531 4.18386 65.9438 6.69616 68.4732 12.2832C72.1108 20.2513 60.6188 35.0813 41.5367 37.2187C34.2635 38.0249 30.4403 35.2126 29.484 34.1627C28.4903 33.0565 28.3403 33.0003 27.9653 33.2065C27.3465 33.544 27.7403 34.5189 27.9653 35.1001C28.5278 36.5812 30.8716 39.206 34.8635 40.5184C38.3698 41.6621 46.8974 42.2995 57.2081 38.3061C68.792 33.8439 77.809 21.4137 75.1652 11.0083C72.4727 0.434169 54.9375 -3.0343 38.3567 2.85272C28.4772 6.35869 17.7933 11.8707 10.1076 19.0514C0.978093 27.6007 -0.482549 35.0438 0.117458 38.1561C2.25311 49.1989 17.4745 56.3984 23.5665 61.7229C23.2665 61.8917 22.9852 62.0416 22.7227 62.1916C19.6683 63.7103 8.0638 69.7848 5.15939 76.1967C1.8781 83.4712 5.70315 88.6832 8.2138 89.3957C16.0495 91.5705 24.0727 87.6521 28.3834 81.2213C32.6941 74.7906 32.171 66.3913 30.1834 62.5666C30.1647 62.5104 30.1272 62.4729 30.1084 62.4166C30.8959 61.9479 31.7022 61.4792 32.5085 61.0105C34.0629 60.0918 35.5816 59.2481 36.9129 58.5169C36.1629 60.5418 35.6191 62.9791 35.3379 66.5038C35.0004 70.6284 36.7066 75.9718 38.9192 78.0716C39.8942 78.9903 41.0736 79.009 41.8048 79.009C44.3923 79.009 45.5549 76.8717 46.8467 74.3219C48.4405 71.2097 49.8468 67.5912 49.8468 67.5912C49.8468 67.5912 48.0843 77.3779 52.9031 77.3779C54.6637 77.3779 56.4262 75.1093 57.2156 73.9469V73.9657C57.2156 73.9657 57.2531 73.8907 57.3469 73.7407C57.5344 73.4595 57.6281 73.2907 57.6281 73.2907V73.2345C58.3406 72.0158 59.8969 69.2223 62.2388 64.6102C65.2763 58.6482 68.1807 51.205 68.1807 51.205C68.4614 52.8412 68.8497 54.4571 69.3433 56.0421C69.8683 57.8232 70.9745 59.7731 71.8558 61.6667C71.1433 62.6416 70.712 63.204 70.712 63.204C70.7134 63.2184 70.7201 63.2318 70.7308 63.2415C70.1683 63.9915 69.5308 64.7977 68.8745 65.5851C66.4763 68.4349 63.6244 71.6971 63.2494 72.6345C62.7994 73.7407 62.9119 74.5656 63.7744 75.2031C64.412 75.6905 65.537 75.7655 66.7164 75.6718C68.8726 75.5218 70.3914 74.9968 71.1227 74.6594C72.4708 74.176 73.7449 73.5071 74.9083 72.672C77.2521 70.9472 78.6771 68.4724 78.5459 65.2101C78.4709 63.4103 77.8896 61.6104 77.1771 59.9231C77.3833 59.6231 77.6084 59.3044 77.8146 58.9856C81.5253 53.5673 84.3941 47.6203 84.3941 47.6203C84.6747 49.2565 85.0631 50.8724 85.5566 52.4574C86.0066 53.9761 86.886 55.6447 87.6922 57.2758C84.2066 60.1068 82.0503 63.3878 81.3003 65.5439C79.9128 69.5373 81.0003 71.3371 83.044 71.7496C83.9628 71.9371 85.2753 71.5059 86.2503 71.0934C87.6984 70.6111 89.0637 69.9093 90.2985 69.0123C92.6423 67.2875 94.9092 64.8689 94.7592 61.5879C94.7029 60.1068 94.2904 58.6257 93.7467 57.2008C96.6904 55.9634 100.514 55.2884 105.389 55.8509C115.829 57.0696 117.873 63.594 117.479 66.3126C117.085 69.0311 114.891 70.5497 114.16 70.9997C113.429 71.4496 113.204 71.6184 113.26 71.9558C113.354 72.4433 113.691 72.4246 114.31 72.3121C115.173 72.1621 119.783 70.0997 119.989 65.0564C120.289 58.6819 114.16 51.67 103.302 51.7262L103.307 51.73ZM22.8352 78.859C19.3871 82.6275 14.5495 84.0524 12.4701 82.8525C10.2388 81.5551 11.1201 76.0093 15.3745 71.9933C17.962 69.556 21.2977 67.3062 23.5102 65.9188C24.0165 65.6189 24.7477 65.1689 25.6477 64.6252C25.7978 64.5314 25.8728 64.4939 25.8728 64.4939C26.0415 64.3815 26.229 64.2877 26.4165 64.1752C27.9709 69.8748 26.4728 74.8993 22.8352 78.8553V78.859ZM48.028 61.7229C46.828 64.6664 44.2986 72.1658 42.7611 71.7721C41.4486 71.4346 40.6423 65.7163 42.4986 60.0918C43.4361 57.2608 45.4236 53.8861 46.6049 52.5737C48.4968 50.4551 50.578 49.7801 51.0655 50.6238C51.7218 51.73 48.778 59.8856 48.028 61.7229ZM68.8407 71.6596C68.3345 71.9221 67.8657 72.0908 67.6407 71.9596C67.472 71.8658 67.847 71.5096 67.847 71.5096C67.847 71.5096 70.4533 68.7161 71.4845 67.4412C72.0845 66.6913 72.7783 65.8101 73.5264 64.8352C73.5264 64.9289 73.5452 65.0227 73.5452 65.1351C73.5208 68.4911 70.2976 70.7597 68.8351 71.6596H68.8407ZM84.8872 68.0037C84.5122 67.7412 84.5684 66.86 85.8247 64.1227C86.3122 63.0541 87.4353 61.2542 89.3872 59.5294C89.6082 60.1823 89.7283 60.8651 89.7435 61.5542C89.7247 65.7726 86.706 67.3475 84.8891 68.0037H84.8872Z" fill="url(#paint0_linear_2459_718)"/>
<defs>
<linearGradient id="paint0_linear_2459_718" x1="0" y1="45" x2="120" y2="45" gradientUnits="userSpaceOnUse">
<stop stop-color="#FF7262"/>
<stop offset="1" stop-color="#A259FF"/>
</linearGradient>
</defs>
</svg>
