<svg width="24" height="24" viewBox="0 0 24 24" fill="none" xmlns="http://www.w3.org/2000/svg">
<path d="M12.1255 7.15788C9.45178 7.15788 7.28336 9.3263 7.28336 12C7.28336 14.6737 9.45178 16.8421 12.1255 16.8421C14.7991 16.8421 16.9676 14.6737 16.9676 12C16.9676 9.3263 14.7991 7.15788 12.1255 7.15788Z" fill="currentColor"/>
<path d="M12.1255 5.76842C12.7781 5.76842 13.2834 5.2421 13.2834 4.61052C13.2834 3.97895 12.7781 2 12.1255 2C11.4728 2 10.9676 3.95789 10.9676 4.61052C10.9676 5.26316 11.4728 5.76842 12.1255 5.76842Z" fill="currentColor"/>
<path d="M7.72547 7.60002C8.18863 7.13686 8.18863 6.40002 7.72547 5.95792C7.26231 5.51581 5.51494 4.48423 5.05178 4.94739C4.58863 5.41055 5.62021 7.15792 6.06231 7.62107C6.52547 8.06318 7.26231 8.06318 7.72547 7.60002Z" fill="currentColor"/>
<path d="M5.89389 12C5.89389 11.3474 5.36757 10.8421 4.73599 10.8421C4.10442 10.8421 2.12547 11.3474 2.12547 12C2.12547 12.6526 4.08336 13.1579 4.73599 13.1579C5.38863 13.1579 5.89389 12.6526 5.89389 12Z" fill="currentColor"/>
<path d="M6.08336 16.4C5.62021 16.8632 4.60968 18.6105 5.07284 19.0737C5.536 19.5368 7.28336 18.5053 7.74652 18.0631C8.20968 17.6 8.20968 16.8632 7.74652 16.421C7.28336 15.9789 6.52547 15.9368 6.08336 16.4Z" fill="currentColor"/>
<path d="M12.1255 18.2316C11.4728 18.2316 10.9676 18.7579 10.9676 19.3895C10.9676 20.0211 11.4939 22 12.1255 22C12.7781 22 13.2834 20.0421 13.2834 19.3895C13.2834 18.7368 12.7781 18.2316 12.1255 18.2316Z" fill="currentColor"/>
<path d="M16.5255 16.4C16.0623 16.8632 16.0623 17.6 16.5255 18.0421C16.9886 18.5053 18.736 19.5158 19.1991 19.0526C19.6623 18.5895 18.6307 16.8421 18.1886 16.379C17.7465 15.9158 16.9886 15.9369 16.5255 16.4Z" fill="currentColor"/>
<path d="M19.5149 10.8421C18.8623 10.8421 18.357 11.3684 18.357 12C18.357 12.6526 18.8834 13.1579 19.5149 13.1579C20.1676 13.1579 22.1255 12.6316 22.1255 12C22.1255 11.3474 20.1676 10.8421 19.5149 10.8421Z" fill="currentColor"/>
<path d="M18.1676 7.60002C18.6307 7.13686 19.6413 5.38949 19.1781 4.92633C18.7149 4.46318 16.9676 5.49476 16.5044 5.93686C16.0413 6.37897 16.0413 7.13686 16.5044 7.57896C16.9886 8.06318 17.7255 8.06318 18.1676 7.60002Z" fill="currentColor"/>
</svg>
