<svg class="w-17 lg:w-30" viewBox="0 0 120 72" fill="none" xmlns="http://www.w3.org/2000/svg">
<path d="M98.8057 21.0893C94.3148 19.5426 90.3508 16.7616 87.3682 13.0651C84.0809 8.9466 79.8952 5.63454 75.1313 3.38229C70.3673 1.13004 65.1513 -0.00272355 59.8822 0.0706589C52.7944 -0.431301 45.7775 1.75482 40.2289 6.19366C34.6804 10.6325 31.0073 16.9984 29.9411 24.0236C32.041 20.5099 35.2015 17.7531 38.9677 16.1498C42.734 14.5464 46.9117 14.1793 50.8999 15.1011C55.3832 16.6928 59.3408 19.49 62.3374 23.1852C65.6427 27.2708 69.8363 30.5487 74.5993 32.7693C79.3623 34.9899 84.569 36.0949 89.8234 36C96.9112 36.502 103.928 34.3158 109.477 29.877C115.025 25.4382 118.698 19.0723 119.764 12.0471C117.703 15.6027 114.552 18.4012 110.778 20.0294C107.004 21.6576 102.807 22.0292 98.8057 21.0893ZM20.9588 50.9107C25.4496 52.4574 29.4137 55.2384 32.3963 58.9349C35.6835 63.0534 39.8692 66.3655 44.6332 68.6177C49.3972 70.87 54.6132 72.0027 59.8822 71.9293C66.9701 72.4313 73.987 70.2452 79.5356 65.8063C85.0841 61.3675 88.7572 55.0016 89.8234 47.9765C87.7234 51.4901 84.563 54.2469 80.7967 55.8503C77.0305 57.4536 72.8527 57.8207 68.8646 56.8989C64.3812 55.3072 60.4237 52.51 57.4271 48.8148C54.1129 44.7393 49.9175 41.4687 45.1566 39.249C40.3957 37.0293 35.1934 35.9184 29.9411 36C22.8533 35.498 15.8364 37.6842 10.2878 42.123C4.73925 46.5618 1.06616 52.9277 0 59.9529C2.06179 56.3973 5.2122 53.5988 8.98613 51.9706C12.7601 50.3424 16.9575 49.9708 20.9588 50.9107Z" fill="url(#paint0_linear_2459_720)"/>
<defs>
<linearGradient id="paint0_linear_2459_720" x1="0" y1="36" x2="119.764" y2="36" gradientUnits="userSpaceOnUse">
<stop stop-color="#FF7262"/>
<stop offset="1" stop-color="#A259FF"/>
</linearGradient>
</defs>
</svg>
