<svg class="w-17 lg:w-30" viewBox="0 0 129 85" fill="none" xmlns="http://www.w3.org/2000/svg">
<path d="M93.7722 0.348696C97.007 -0.263081 104.524 -0.0335643 107.698 0.754075C112.363 1.91646 115.911 3.9889 119.177 7.36897C120.867 9.17375 123.375 12.4625 123.574 13.2578C123.628 13.492 115.649 18.8417 110.818 21.8457C110.643 21.9604 109.939 21.2031 109.159 20.0408C106.788 16.5995 104.318 15.1156 100.533 14.8555C94.9654 14.4732 91.3863 17.3874 91.4169 22.2511C91.3663 23.4471 91.6355 24.635 92.1969 25.6923C93.4205 28.2235 95.6998 29.7455 102.827 32.8274C115.972 38.4863 121.593 42.2105 125.088 47.5099C128.988 53.4214 129.868 62.8661 127.214 69.8863C124.308 77.5184 117.081 82.7033 106.91 84.4163C103.767 84.9745 96.3115 84.8901 92.9313 84.2784C85.5593 82.963 78.569 79.3233 74.2559 74.5437C72.5658 72.6853 69.2703 67.8136 69.4767 67.4695C69.5616 67.3468 70.3185 66.8804 71.1592 66.3913C71.9853 65.9246 75.0672 64.1429 77.9806 62.453L83.2568 59.3941L84.3658 61.0303C85.9106 63.3857 89.2834 66.6208 91.3252 67.6991C97.1831 70.7886 105.22 70.3526 109.182 66.7966C109.978 66.1256 110.609 65.2796 111.024 64.3244C111.44 63.3693 111.628 62.3309 111.575 61.2908C111.575 59.1648 111.308 58.2317 110.199 56.6257C108.776 54.5916 105.863 52.8783 97.5886 49.2841C88.1212 45.2081 84.0447 42.6771 80.3128 38.6546C77.9836 36 76.2634 32.8678 75.2732 29.4779C74.5773 26.8855 74.4012 20.385 74.9518 17.7695C76.9019 8.61564 83.8077 2.24526 93.7722 0.348696ZM32.4479 0.838092L64.5289 0.92981L64.6129 8.41708L64.6738 15.9338H40.776V83.8121H23.8754V15.9338H0V8.56201C3.37923e-07 4.48199 0.0842867 1.07381 0.198839 0.991422C0.290607 0.869065 14.8284 0.807503 32.4479 0.838092Z" fill="url(#paint0_linear_2459_740)"/>
<defs>
<linearGradient id="paint0_linear_2459_740" x1="0" y1="42.395" x2="128.737" y2="42.395" gradientUnits="userSpaceOnUse">
<stop stop-color="#FF7262"/>
<stop offset="1" stop-color="#A259FF"/>
</linearGradient>
</defs>
</svg>
